<svg width="25" height="14" viewBox="0 0 25 14" fill="none" xmlns="http://www.w3.org/2000/svg">
<path d="M12.5192 9.03009L20.6803 0.86898C21.064 0.485338 21.5523 0.293516 22.1452 0.293516C22.7381 0.293516 23.2263 0.485338 23.61 0.86898C23.9936 1.25262 24.1854 1.74089 24.1854 2.33379C24.1854 2.9267 23.9936 3.41497 23.61 3.79861L13.984 13.4245C13.7748 13.6338 13.5481 13.7817 13.304 13.8682C13.0598 13.9547 12.7982 13.9986 12.5192 14C12.2402 14 11.9786 13.9561 11.7345 13.8682C11.4904 13.7803 11.2637 13.6324 11.0544 13.4245L1.42849 3.79861C1.04485 3.41497 0.853027 2.9267 0.853027 2.3338C0.853027 1.74089 1.04485 1.25262 1.42849 0.868981C1.81213 0.485339 2.3004 0.293517 2.8933 0.293517C3.48621 0.293517 3.97448 0.485339 4.35812 0.868981L12.5192 9.03009Z" fill="#154E49"/>
</svg>
