<svg width="25" height="29" viewBox="0 0 25 29" fill="none" xmlns="http://www.w3.org/2000/svg">
<path fill-rule="evenodd" clip-rule="evenodd" d="M12.1 0C11.5477 0 11.1 0.447715 11.1 1C11.1 1.55228 11.5477 2 12.1 2H20.6C21.7045 2 22.6 2.89543 22.6 4V24.45C22.6 25.5546 21.7045 26.45 20.6 26.45H12.1C11.5477 26.45 11.1 26.8977 11.1 27.45C11.1 28.0023 11.5477 28.45 12.1 28.45H20.6C22.8091 28.45 24.6 26.6591 24.6 24.45V4C24.6 1.79086 22.8091 0 20.6 0H12.1ZM17.8071 13.518L11.4431 7.15403C11.0526 6.7635 10.4195 6.7635 10.0289 7.15403C9.63841 7.54455 9.63841 8.17772 10.0289 8.56824L14.6858 13.2251L1 13.2251C0.447715 13.2251 0 13.6728 0 14.2251C0 14.7774 0.447715 15.2251 1 15.2251L14.6858 15.2251L10.0289 19.882C9.63841 20.2725 9.63841 20.9056 10.0289 21.2962C10.4195 21.6867 11.0526 21.6867 11.4431 21.2962L17.8071 14.9322C18.1976 14.5417 18.1976 13.9085 17.8071 13.518Z" fill="#154E49"/>
</svg>
