<svg width="104" height="134" viewBox="0 0 104 134" fill="none" xmlns="http://www.w3.org/2000/svg">
<path fill-rule="evenodd" clip-rule="evenodd" d="M0 88.1321C0 87.3883 0.165966 86.6538 0.485801 85.9822L15.612 54.2211C17.3025 50.6715 22.2396 50.3717 24.3471 53.6907L27.8057 59.1372C29.8804 62.4045 34.7211 62.177 36.4803 58.7295L52.3143 27.6986C53.9813 24.4317 58.4814 24.0117 60.7242 26.9136L75.0722 45.4784C77.3282 48.3974 81.8605 47.9516 83.5045 44.6489L98.4051 14.7146C99.4451 12.6254 102.114 11.4488 103.304 13.4563C103.746 14.202 104 15.0726 104 16.0024V107.402C104 110.164 101.761 112.402 99 112.402H5C2.23858 112.402 0 110.164 0 107.402V88.1321Z" fill="#016670"/>
</svg>
