<svg width="104" height="120" viewBox="0 0 104 120" fill="none" xmlns="http://www.w3.org/2000/svg">
<path fill-rule="evenodd" clip-rule="evenodd" d="M50.3823 93.6423C51.4309 93.2837 52.569 93.2837 53.6177 93.6423L91.4723 106.586C95.3711 107.919 99.1184 104.229 97.8455 100.31L85.451 62.1548C85.1167 61.1258 85.1252 60.0161 85.4753 58.9923L98.6494 20.4643C99.9825 16.5656 96.2924 12.8182 92.3736 14.0912L53.5447 26.7044C52.5407 27.0306 51.4593 27.0306 50.4552 26.7044L11.6263 14.0912C7.70755 12.8182 4.0174 16.5656 5.35052 20.4643L18.5246 58.9923C18.8747 60.0161 18.8832 61.1258 18.549 62.1548L6.15449 100.31C4.8815 104.229 8.62886 107.919 12.5276 106.586L50.3823 93.6423Z" fill="#016670"/>
</svg>
