<svg width="105" height="116" viewBox="0 0 105 116" fill="none" xmlns="http://www.w3.org/2000/svg">
<path fill-rule="evenodd" clip-rule="evenodd" d="M84.4448 0H20.0552C9.11709 0 0.25 8.82387 0.25 19.7087V66.5623C0.25 79.0055 6.46657 90.6344 16.8358 97.5883L37.6893 111.573C46.4904 117.476 58.0096 117.476 66.8107 111.573L87.6642 97.5883C98.0334 90.6344 104.25 79.0055 104.25 66.5623V19.7087C104.25 8.82386 95.3829 0 84.4448 0ZM14.6676 15.6155C15.9062 14.0036 17.8587 12.9638 20.0552 12.9638H84.4448C86.6415 12.9638 88.5941 14.0038 89.8327 15.6159C88.592 14.0245 86.6501 13 84.4674 13H20.0326C17.8501 13 15.9083 14.0243 14.6676 15.6155ZM20.8185 84.188C21.83 85.1557 22.9316 86.0435 24.1162 86.8379L44.9696 100.823C49.3702 103.774 55.1298 103.774 59.5304 100.823L80.3838 86.8379C81.5687 86.0432 82.6707 85.1552 83.6824 84.1872C82.676 85.1462 81.5807 86.0265 80.4035 86.8147L59.5355 100.788C55.1318 103.737 49.3682 103.737 44.9645 100.788L24.0965 86.8147C22.9197 86.0267 21.8247 85.1468 20.8185 84.188Z" fill="#016670"/>
<path d="M32.25 52.7692L47.6321 68L76.25 41" stroke="white" stroke-width="13" stroke-linecap="round" stroke-linejoin="round"/>
</svg>
