<svg width="105" height="120" viewBox="0 0 105 120" fill="none" xmlns="http://www.w3.org/2000/svg">
<path fill-rule="evenodd" clip-rule="evenodd" d="M50.6321 93.6408C51.6808 93.2822 52.8189 93.2822 53.8676 93.6408L91.7222 106.585C95.621 107.918 99.3683 104.228 98.0953 100.309L85.7009 62.1533C85.3666 61.1243 85.3751 60.0146 85.7252 58.9909L98.8993 20.4629C100.232 16.5641 96.5423 12.8168 92.6235 14.0897L53.7946 26.703C52.7906 27.0291 51.7091 27.0291 50.7051 26.703L11.8762 14.0897C7.95743 12.8167 4.26728 16.5641 5.6004 20.4628L18.7745 58.9909C19.1246 60.0146 19.1331 61.1243 18.7988 62.1533L6.40437 100.309C5.13138 104.228 8.87874 107.918 12.7775 106.585L50.6321 93.6408Z" fill="#016670"/>
</svg>
