<svg width="105" height="120" viewBox="0 0 105 120" fill="none" xmlns="http://www.w3.org/2000/svg">
<rect x="0.25" y="8" width="104" height="104" rx="10" fill="#016670"/>
<path d="M71.4159 38C71.4159 36.8954 72.3113 36 73.4159 36H77.5039C78.6084 36 79.5039 36.8954 79.5039 38V82.5995C79.5039 83.704 78.6084 84.5995 77.5039 84.5995H73.4159C72.3113 84.5995 71.4159 83.704 71.4159 82.5995V38Z" fill="white"/>
<path d="M38.9317 37.4427C39.1797 36.588 39.9626 36 40.8525 36H50.0643C50.9482 36 51.7273 36.5802 51.9805 37.4271L65.3144 82.0266C65.6979 83.3094 64.7371 84.5995 63.3982 84.5995H59.4496C58.5656 84.5995 57.7864 84.0191 57.5333 83.1721L53.9487 71.1751C53.6956 70.328 52.9164 69.7477 52.0324 69.7477H39.322C38.4281 69.7477 37.6428 70.3408 37.3983 71.2007L34.0016 83.1465C33.7572 84.0063 32.9718 84.5995 32.0779 84.5995H27.9127C26.5806 84.5995 25.6208 83.3216 25.992 82.0422L38.9317 37.4427ZM49.2165 63.5206C50.5368 63.5206 51.4948 62.2638 51.145 60.9907L47.3196 47.069C46.7739 45.083 43.9451 45.1188 43.4498 47.1179L40.0007 61.0397C39.6883 62.3009 40.6426 63.5206 41.942 63.5206H49.2165Z" fill="white"/>
</svg>
