<svg width="106" height="120" viewBox="0 0 106 120" fill="none" xmlns="http://www.w3.org/2000/svg">
<path d="M49.2509 2.61563C50.2785 -0.871874 55.2215 -0.871877 56.2491 2.61563L65.2836 33.2782C65.8329 35.1427 67.7495 36.2486 69.64 35.7918L100.729 28.2795C104.265 27.425 106.737 31.7031 104.228 34.3362L82.1735 57.4865C80.8325 58.8942 80.8325 61.1058 82.1735 62.5135L104.228 85.6638C106.737 88.2969 104.265 92.575 100.729 91.7205L69.64 84.2083C67.7495 83.7514 65.8329 84.8573 65.2836 86.7218L56.2491 117.384C55.2215 120.872 50.2785 120.872 49.2509 117.384L40.2164 86.7218C39.6671 84.8573 37.7505 83.7514 35.86 84.2083L4.77099 91.7205C1.23499 92.575 -1.23655 88.2969 1.27189 85.6638L23.3265 62.5135C24.6675 61.1058 24.6675 58.8942 23.3265 57.4865L1.27189 34.3362C-1.23655 31.7031 1.23499 27.425 4.77099 28.2795L35.86 35.7918C37.7505 36.2486 39.6671 35.1427 40.2164 33.2782L49.2509 2.61563Z" fill="#016670"/>
</svg>
