<svg width="128" height="32" viewBox="0 0 128 32" fill="none" xmlns="http://www.w3.org/2000/svg">
<path d="M18.946 15.1588C18.9597 14.0928 19.2429 13.0475 19.7691 12.1203C20.2954 11.1931 21.0476 10.414 21.9558 9.85567C21.3789 9.03165 20.6177 8.35351 19.7328 7.87512C18.8479 7.39673 17.8637 7.13127 16.8582 7.09981C14.7134 6.87468 12.6342 8.38321 11.5412 8.38321C10.4271 8.38321 8.74438 7.12216 6.93234 7.15944C5.76026 7.19731 4.61797 7.53814 3.61678 8.14874C2.61558 8.75933 1.78963 9.61885 1.21939 10.6436C-1.25078 14.9203 0.591742 21.2056 2.95795 24.6626C4.14182 26.3553 5.52542 28.2462 7.33583 28.1792C9.10743 28.1057 9.76908 27.0495 11.9076 27.0495C14.0262 27.0495 14.6469 28.1792 16.4941 28.1365C18.3951 28.1057 19.5928 26.4362 20.7351 24.7274C21.5858 23.5212 22.2403 22.1882 22.6745 20.7776C21.5701 20.3104 20.6276 19.5286 19.9646 18.5294C19.3015 17.5302 18.9473 16.358 18.946 15.1588Z" fill="white"/>
<path d="M15.4572 4.82649C16.4937 3.5822 17.0043 1.98288 16.8807 0.368164C15.2971 0.534486 13.8343 1.29132 12.7838 2.48787C12.2702 3.07241 11.8768 3.75246 11.6262 4.48913C11.3755 5.2258 11.2725 6.00464 11.323 6.78114C12.1151 6.7893 12.8987 6.61762 13.6148 6.27904C14.3309 5.94047 14.9608 5.44381 15.4572 4.82649Z" fill="white"/>
<path d="M41.3399 23.895H35.2943L33.8424 28.182H31.2817L37.0081 12.3213H39.6686L45.3949 28.182H42.7905L41.3399 23.895ZM35.9204 21.9168H40.7126L38.3502 14.9593H38.2841L35.9204 21.9168Z" fill="white"/>
<path d="M57.7618 22.4007C57.7618 25.9942 55.8385 28.3029 52.936 28.3029C52.2008 28.3414 51.4696 28.172 50.8261 27.8142C50.1827 27.4564 49.653 26.9246 49.2977 26.2798H49.2427V32.0074H46.8691V16.6182H49.1667V18.5416H49.2104C49.582 17.8998 50.1206 17.3708 50.769 17.0108C51.4173 16.6508 52.1512 16.4733 52.8924 16.4972C55.8272 16.4973 57.7618 18.8172 57.7618 22.4007ZM55.3221 22.4007C55.3221 20.0595 54.1122 18.5204 52.2662 18.5204C50.4527 18.5204 49.2328 20.092 49.2328 22.4007C49.2328 24.7307 50.4527 26.291 52.2662 26.291C54.1122 26.291 55.3221 24.7631 55.3221 22.4007Z" fill="white"/>
<path d="M70.4893 22.4007C70.4893 25.9942 68.566 28.3029 65.6636 28.3029C64.9283 28.3414 64.1971 28.172 63.5536 27.8142C62.9102 27.4564 62.3805 26.9246 62.0252 26.2798H61.9703V32.0074H59.5967V16.6182H61.8942V18.5416H61.9378C62.3095 17.8998 62.8481 17.3708 63.4965 17.0108C64.1448 16.6508 64.8787 16.4733 65.6199 16.4972C68.5548 16.4972 70.4893 18.8172 70.4893 22.4007ZM68.0496 22.4007C68.0496 20.0595 66.8398 18.5204 64.9938 18.5204C63.1802 18.5204 61.9603 20.092 61.9603 22.4007C61.9603 24.7307 63.1802 26.291 64.9938 26.291C66.8398 26.291 68.0496 24.7631 68.0496 22.4007H68.0496Z" fill="white"/>
<path d="M78.901 23.7626C79.0768 25.3354 80.6048 26.3681 82.6927 26.3681C84.6934 26.3681 86.1328 25.3354 86.1328 23.9172C86.1328 22.6861 85.2647 21.949 83.2091 21.4438L81.1536 20.9486C78.2412 20.2452 76.8891 18.8831 76.8891 16.6729C76.8891 13.9363 79.2739 12.0566 82.6603 12.0566C86.0118 12.0566 88.3093 13.9363 88.3867 16.6729H85.9906C85.8471 15.0901 84.5387 14.1346 82.6266 14.1346C80.7145 14.1346 79.4061 15.1013 79.4061 16.5083C79.4061 17.6296 80.2418 18.2894 82.2861 18.7945L84.0335 19.2236C87.2877 19.9932 88.6398 21.3004 88.6398 23.6203C88.6398 26.5876 86.2762 28.4461 82.5168 28.4461C78.9995 28.4461 76.6246 26.6313 76.4712 23.7625L78.901 23.7626Z" fill="white"/>
<path d="M93.7625 13.8821V16.6186H95.9614V18.4983H93.7625V24.8733C93.7625 25.8636 94.2028 26.3251 95.1694 26.3251C95.4305 26.3206 95.6911 26.3022 95.9502 26.2702V28.1386C95.5156 28.2198 95.0739 28.2566 94.6318 28.2484C92.2907 28.2484 91.3776 27.3691 91.3776 25.1264V18.4983H89.6963V16.6186H91.3776V13.8821H93.7625Z" fill="white"/>
<path d="M97.2354 22.401C97.2354 18.7626 99.3782 16.4763 102.72 16.4763C106.072 16.4763 108.205 18.7626 108.205 22.401C108.205 26.0493 106.084 28.3256 102.72 28.3256C99.3569 28.3256 97.2354 26.0493 97.2354 22.401ZM105.787 22.401C105.787 19.9051 104.643 18.4321 102.72 18.4321C100.796 18.4321 99.6538 19.9164 99.6538 22.401C99.6538 24.9068 100.796 26.3686 102.72 26.3686C104.643 26.3686 105.787 24.9068 105.787 22.401H105.787Z" fill="white"/>
<path d="M110.162 16.6181H112.425V18.5863H112.48C112.634 17.9716 112.994 17.4284 113.5 17.0479C114.007 16.6674 114.629 16.473 115.262 16.4971C115.535 16.4962 115.808 16.5259 116.075 16.5857V18.8059C115.73 18.7004 115.37 18.6519 115.009 18.6624C114.664 18.6485 114.32 18.7093 114.001 18.8407C113.682 18.9721 113.395 19.171 113.16 19.4237C112.925 19.6765 112.747 19.9771 112.64 20.3049C112.532 20.6327 112.496 20.98 112.535 21.3229V28.1818H110.162L110.162 16.6181Z" fill="white"/>
<path d="M127.019 24.7858C126.7 26.885 124.655 28.3256 122.04 28.3256C118.676 28.3256 116.588 26.0718 116.588 22.4559C116.588 18.8287 118.687 16.4763 121.94 16.4763C125.139 16.4763 127.151 18.674 127.151 22.1802V22.9934H118.984V23.1369C118.946 23.5624 119 23.9912 119.14 24.3946C119.281 24.798 119.506 25.1668 119.8 25.4766C120.094 25.7864 120.451 26.03 120.847 26.1914C121.242 26.3527 121.668 26.428 122.095 26.4123C122.656 26.4648 123.219 26.3349 123.7 26.0419C124.181 25.7488 124.555 25.3083 124.765 24.7858L127.019 24.7858ZM118.995 21.3345H124.776C124.798 20.9519 124.74 20.569 124.606 20.2098C124.472 19.8506 124.266 19.523 123.999 19.2474C123.733 18.9718 123.413 18.7542 123.058 18.6084C122.704 18.4625 122.323 18.3914 121.94 18.3996C121.554 18.3973 121.17 18.4716 120.813 18.6182C120.455 18.7647 120.13 18.9806 119.856 19.2535C119.582 19.5264 119.365 19.8507 119.218 20.2079C119.07 20.5651 118.994 20.948 118.995 21.3345V21.3345Z" fill="white"/>
<path d="M35.6234 0.382671C36.121 0.346961 36.6204 0.422139 37.0854 0.602781C37.5505 0.783424 37.9696 1.06503 38.3127 1.42728C38.6557 1.78954 38.9141 2.22341 39.0692 2.69761C39.2242 3.17181 39.2721 3.67451 39.2094 4.16946C39.2094 6.60418 37.8935 8.00371 35.6234 8.00371H32.8706V0.382671H35.6234ZM34.0543 6.92593H35.4912C35.8468 6.94718 36.2026 6.88888 36.5328 6.75526C36.863 6.62165 37.1593 6.41608 37.4001 6.15352C37.6408 5.89097 37.82 5.57804 37.9245 5.2375C38.0291 4.89697 38.0564 4.53741 38.0045 4.18499C38.0526 3.83396 38.0226 3.47663 37.9164 3.13859C37.8102 2.80056 37.6306 2.49018 37.3904 2.22972C37.1502 1.96925 36.8554 1.76514 36.527 1.63201C36.1987 1.49887 35.8449 1.44001 35.4912 1.45965H34.0543V6.92593Z" fill="white"/>
<path d="M40.5465 5.1257C40.5104 4.74774 40.5536 4.3664 40.6735 4.00613C40.7933 3.64586 40.9871 3.31462 41.2425 3.03366C41.4979 2.75269 41.8092 2.5282 42.1564 2.37458C42.5036 2.22096 42.8791 2.1416 43.2588 2.1416C43.6384 2.1416 44.0139 2.22096 44.3612 2.37458C44.7084 2.5282 45.0196 2.75269 45.275 3.03366C45.5304 3.31462 45.7242 3.64586 45.8441 4.00613C45.9639 4.3664 46.0072 4.74774 45.971 5.1257C46.0079 5.50404 45.9651 5.88591 45.8456 6.24676C45.7261 6.60761 45.5323 6.93945 45.2769 7.22097C45.0215 7.50249 44.71 7.72746 44.3624 7.88141C44.0148 8.03536 43.6389 8.11489 43.2588 8.11489C42.8786 8.11489 42.5027 8.03536 42.1551 7.88141C41.8076 7.72746 41.4961 7.50249 41.2406 7.22097C40.9852 6.93945 40.7915 6.60761 40.6719 6.24676C40.5524 5.88591 40.5097 5.50404 40.5465 5.1257ZM44.8035 5.1257C44.8035 3.87903 44.2435 3.14999 43.2606 3.14999C42.274 3.14999 41.719 3.87903 41.719 5.12571C41.719 6.38236 42.2741 7.10579 43.2606 7.10579C44.2435 7.10577 44.8035 6.37736 44.8035 5.1257H44.8035Z" fill="white"/>
<path d="M53.1817 8.00324H52.0042L50.8156 3.76741H50.7258L49.5421 8.00324H48.3758L46.7905 2.25195H47.9418L48.9721 6.64052H49.0569L50.2393 2.25195H51.3282L52.5106 6.64052H52.6004L53.6257 2.25195H54.7607L53.1817 8.00324Z" fill="white"/>
<path d="M56.0942 2.25144H57.1869V3.16509H57.2717C57.4156 2.83694 57.6583 2.56186 57.9659 2.37819C58.2736 2.19451 58.6308 2.1114 58.988 2.14043C59.2678 2.11939 59.5488 2.16158 59.8101 2.26388C60.0714 2.36618 60.3064 2.52597 60.4976 2.73141C60.6888 2.93684 60.8313 3.18266 60.9145 3.45065C60.9978 3.71863 61.0197 4.00193 60.9787 4.27953V8.00266H59.8436V4.56456C59.8436 3.64032 59.442 3.18068 58.6026 3.18068C58.4126 3.17183 58.2229 3.20417 58.0466 3.27548C57.8702 3.34679 57.7114 3.45538 57.581 3.59381C57.4505 3.73224 57.3516 3.89724 57.2909 4.0775C57.2302 4.25776 57.2092 4.44901 57.2293 4.63814V8.00273H56.0942L56.0942 2.25144Z" fill="white"/>
<path d="M62.7871 0.00683594H63.9221V8.00325H62.7871V0.00683594Z" fill="white"/>
<path d="M65.4996 5.1258C65.4635 4.74782 65.5067 4.36646 65.6266 4.00618C65.7465 3.6459 65.9404 3.31465 66.1958 3.03367C66.4512 2.7527 66.7625 2.5282 67.1097 2.37458C67.457 2.22096 67.8325 2.1416 68.2122 2.1416C68.5919 2.1416 68.9674 2.22096 69.3146 2.37458C69.6619 2.5282 69.9732 2.7527 70.2286 3.03367C70.484 3.31465 70.6778 3.6459 70.7977 4.00618C70.9176 4.36646 70.9609 4.74782 70.9247 5.1258C70.9615 5.50416 70.9188 5.88604 70.7992 6.24689C70.6796 6.60773 70.4859 6.93957 70.2304 7.22109C69.975 7.5026 69.6634 7.72755 69.3158 7.8815C68.9683 8.03544 68.5923 8.11497 68.2122 8.11497C67.832 8.11497 67.4561 8.03544 67.1085 7.8815C66.7609 7.72755 66.4494 7.5026 66.1939 7.22109C65.9385 6.93957 65.7447 6.60773 65.6252 6.24689C65.5056 5.88604 65.4628 5.50416 65.4996 5.1258ZM69.7566 5.1258C69.7566 3.87914 69.1966 3.15009 68.2137 3.15009C67.2271 3.15009 66.6721 3.87914 66.6721 5.12582C66.6721 6.38247 67.2272 7.1059 68.2137 7.1059C69.1966 7.10588 69.7566 6.37747 69.7566 5.1258H69.7566Z" fill="white"/>
<path d="M72.1196 6.37741C72.1196 5.34215 72.8905 4.74533 74.2587 4.66051L75.8166 4.5707V4.07428C75.8166 3.46684 75.415 3.12384 74.6392 3.12384C74.0055 3.12384 73.5665 3.35647 73.4405 3.76309H72.3416C72.4576 2.77522 73.3869 2.1416 74.6916 2.1416C76.1334 2.1416 76.9467 2.85941 76.9467 4.07428V8.00389H75.854V7.19564H75.7642C75.5819 7.48557 75.326 7.72192 75.0225 7.88056C74.719 8.03921 74.3788 8.11446 74.0367 8.09865C73.7953 8.12376 73.5513 8.098 73.3204 8.02303C73.0895 7.94806 72.8769 7.82554 72.6963 7.66337C72.5157 7.5012 72.371 7.30298 72.2717 7.08149C72.1724 6.86 72.1206 6.62015 72.1196 6.37741ZM75.8166 5.88597V5.40514L74.4122 5.49495C73.6201 5.54795 73.2609 5.81737 73.2609 6.32439C73.2609 6.84202 73.7099 7.14324 74.3274 7.14324C74.5083 7.16155 74.691 7.14329 74.8648 7.08953C75.0385 7.03577 75.1996 6.94761 75.3385 6.83031C75.4775 6.71301 75.5914 6.56896 75.6735 6.40672C75.7557 6.24449 75.8043 6.06739 75.8166 5.88597Z" fill="white"/>
<path d="M78.4385 5.12513C78.4385 3.30783 79.3727 2.15657 80.8258 2.15657C81.1852 2.14001 81.542 2.2261 81.8543 2.40477C82.1666 2.58345 82.4216 2.84734 82.5895 3.16558H82.6743V0.00683594H83.8093V8.00325H82.7217V7.09459H82.6319C82.451 7.41069 82.1871 7.67129 81.8688 7.84816C81.5504 8.02504 81.1898 8.11145 80.8258 8.09803C79.3627 8.09809 78.4385 6.94681 78.4385 5.12513ZM79.611 5.12513C79.611 6.34499 80.186 7.07903 81.1477 7.07903C82.1043 7.07903 82.6955 6.3344 82.6955 5.13013C82.6955 3.93147 82.0981 3.17623 81.1477 3.17623C80.1922 3.17623 79.6109 3.91525 79.6109 5.12513H79.611Z" fill="white"/>
<path d="M88.5055 5.1257C88.4693 4.74774 88.5126 4.3664 88.6324 4.00613C88.7523 3.64586 88.9461 3.31462 89.2015 3.03366C89.4569 2.75269 89.7681 2.5282 90.1154 2.37458C90.4626 2.22096 90.8381 2.1416 91.2178 2.1416C91.5974 2.1416 91.9729 2.22096 92.3201 2.37458C92.6674 2.5282 92.9786 2.75269 93.234 3.03366C93.4894 3.31462 93.6832 3.64586 93.8031 4.00613C93.9229 4.3664 93.9662 4.74774 93.93 5.1257C93.9668 5.50404 93.9241 5.88591 93.8046 6.24676C93.685 6.60761 93.4913 6.93945 93.2359 7.22097C92.9804 7.50249 92.6689 7.72746 92.3214 7.88141C91.9738 8.03536 91.5979 8.11489 91.2178 8.11489C90.8376 8.11489 90.4617 8.03536 90.1141 7.88141C89.7666 7.72746 89.455 7.50249 89.1996 7.22097C88.9442 6.93945 88.7505 6.60761 88.6309 6.24676C88.5114 5.88591 88.4687 5.50404 88.5055 5.1257ZM92.7625 5.1257C92.7625 3.87903 92.2025 3.14999 91.2196 3.14999C90.233 3.14999 89.678 3.87903 89.678 5.12571C89.678 6.38236 90.2331 7.10579 91.2196 7.10579C92.2025 7.10577 92.7625 6.37736 92.7625 5.1257Z" fill="white"/>
<path d="M95.4531 2.25144H96.5458V3.16509H96.6306C96.7745 2.83694 97.0171 2.56186 97.3248 2.37819C97.6324 2.19451 97.9897 2.1114 98.3469 2.14043C98.6267 2.11939 98.9077 2.16158 99.169 2.26388C99.4303 2.36618 99.6653 2.52597 99.8565 2.73141C100.048 2.93684 100.19 3.18266 100.273 3.45065C100.357 3.71863 100.379 4.00193 100.338 4.27953V8.00266H99.2025V4.56456C99.2025 3.64032 98.8009 3.18068 97.9614 3.18068C97.7715 3.17183 97.5818 3.20417 97.4054 3.27548C97.2291 3.34679 97.0703 3.45538 96.9399 3.59381C96.8094 3.73224 96.7105 3.89724 96.6498 4.0775C96.589 4.25776 96.568 4.44901 96.5882 4.63814V8.00273H95.4531V2.25144Z" fill="white"/>
<path d="M106.751 0.820068V2.27815H107.997V3.23421H106.751V6.19155C106.751 6.79399 106.999 7.05779 107.564 7.05779C107.709 7.05733 107.853 7.04858 107.997 7.0316V7.97704C107.793 8.01351 107.587 8.03291 107.38 8.03504C106.117 8.03504 105.615 7.591 105.615 6.48216V3.23416H104.702V2.2781H105.615V0.820068H106.751Z" fill="white"/>
<path d="M109.547 0.00683594H110.672V3.17622H110.762C110.913 2.84501 111.162 2.56837 111.476 2.38401C111.79 2.19964 112.153 2.11652 112.516 2.14596C112.794 2.13081 113.073 2.17728 113.331 2.28207C113.589 2.38686 113.821 2.54737 114.01 2.75216C114.2 2.95695 114.341 3.20097 114.425 3.4668C114.509 3.73264 114.534 4.01374 114.497 4.29006V8.00326H113.36V4.57006C113.36 3.65143 112.933 3.18618 112.131 3.18618C111.935 3.17018 111.739 3.197 111.556 3.26477C111.372 3.33253 111.205 3.43959 111.067 3.57848C110.93 3.71736 110.824 3.8847 110.757 4.0688C110.691 4.2529 110.665 4.4493 110.682 4.64427V8.00324H109.547L109.547 0.00683594Z" fill="white"/>
<path d="M121.115 6.4511C120.961 6.97673 120.626 7.43141 120.171 7.73558C119.715 8.03975 119.167 8.17405 118.623 8.11499C118.244 8.12499 117.867 8.05242 117.519 7.90231C117.171 7.7522 116.86 7.52814 116.607 7.2457C116.354 6.96326 116.166 6.62919 116.055 6.26668C115.945 5.90417 115.914 5.52192 115.966 5.14644C115.915 4.7698 115.947 4.38672 116.057 4.02312C116.167 3.65953 116.355 3.32392 116.606 3.039C116.858 2.75408 117.167 2.52652 117.514 2.37171C117.861 2.2169 118.238 2.13846 118.618 2.1417C120.218 2.1417 121.183 3.23501 121.183 5.04101V5.43707H117.122V5.50067C117.104 5.71173 117.131 5.92417 117.2 6.12438C117.269 6.32459 117.379 6.50814 117.524 6.66326C117.668 6.81839 117.843 6.94167 118.037 7.0252C118.232 7.10872 118.442 7.15065 118.654 7.1483C118.925 7.1809 119.2 7.13201 119.444 7.00785C119.688 6.8837 119.889 6.68989 120.022 6.45106L121.115 6.4511ZM117.122 4.59762H120.027C120.041 4.4046 120.015 4.21071 119.95 4.02843C119.885 3.84615 119.782 3.67949 119.649 3.53918C119.516 3.39887 119.355 3.288 119.176 3.21369C118.997 3.13939 118.805 3.10329 118.611 3.10773C118.415 3.10526 118.22 3.14212 118.038 3.21613C117.857 3.29014 117.691 3.3998 117.553 3.53865C117.414 3.67751 117.304 3.84274 117.23 4.02461C117.156 4.20648 117.12 4.40131 117.122 4.59762H117.122Z" fill="white"/>
</svg>
