<svg width="138" height="33" viewBox="0 0 138 33" fill="none" xmlns="http://www.w3.org/2000/svg">
<path d="M44.8719 4.97899C44.8933 5.41053 44.8266 5.8419 44.6759 6.24684C44.5253 6.65178 44.2938 7.02183 43.9955 7.33445C43.6613 7.68109 43.2576 7.95327 42.8109 8.13317C42.3643 8.31307 41.8847 8.39663 41.4035 8.3784C40.9192 8.38274 40.4389 8.29023 39.9909 8.10631C39.5429 7.92239 39.1362 7.65077 38.7947 7.30741C38.4532 6.96406 38.1837 6.5559 38.0022 6.10692C37.8207 5.65795 37.7308 5.17722 37.7377 4.69298C37.7308 4.20874 37.8208 3.728 38.0023 3.27901C38.1839 2.83003 38.4533 2.42185 38.7948 2.07846C39.1363 1.73508 39.543 1.4634 39.991 1.27939C40.4389 1.09539 40.9192 1.00277 41.4035 1.00697C41.9014 1.00547 42.3943 1.10613 42.8517 1.30274C43.2766 1.47496 43.6547 1.7451 43.9554 2.09115L43.3352 2.71185C43.0988 2.43367 42.8017 2.2135 42.4668 2.06834C42.1319 1.92318 41.7681 1.85691 41.4035 1.87464C41.0364 1.87274 40.6728 1.94494 40.3344 2.0869C39.9959 2.22885 39.6896 2.43766 39.4337 2.70081C39.1779 2.96395 38.9778 3.27603 38.8454 3.61834C38.713 3.96066 38.6511 4.32617 38.6633 4.69298C38.6546 5.24242 38.8092 5.78207 39.1075 6.24352C39.4059 6.70498 39.8346 7.06743 40.3392 7.28494C40.8438 7.50245 41.4017 7.5652 41.942 7.46525C42.4823 7.36529 42.9808 7.10713 43.3742 6.7235C43.7363 6.33334 43.9462 5.8261 43.9657 5.29416H41.4035V4.4466H44.8225C44.8548 4.62224 44.8714 4.80041 44.8719 4.97899Z" fill="white" stroke="white" stroke-width="0.14112" stroke-miterlimit="10"/>
<path d="M50.2928 2.03212H47.0795V4.26927H49.9771V5.11695H47.0795V7.35409H50.2928V8.22118H46.1733V1.16504H50.2928V2.03212Z" fill="white" stroke="white" stroke-width="0.14112" stroke-miterlimit="10"/>
<path d="M54.1164 8.22118H53.2091V2.03212H51.2383V1.16504H56.0871V2.03212H54.1164V8.22118Z" fill="white" stroke="white" stroke-width="0.14112" stroke-miterlimit="10"/>
<path d="M59.5957 8.22118V1.16504H60.5018V8.22118H59.5957Z" fill="white" stroke="white" stroke-width="0.14112" stroke-miterlimit="10"/>
<path d="M64.5235 8.22118H63.6162V2.03212H61.6455V1.16504H66.4943V2.03212H64.5235V8.22118Z" fill="white" stroke="white" stroke-width="0.14112" stroke-miterlimit="10"/>
<path d="M75.6731 7.30903C74.9863 7.99376 74.056 8.37827 73.0862 8.37827C72.1163 8.37827 71.1861 7.99376 70.4993 7.30903C70.1595 6.96489 69.8924 6.55595 69.7139 6.10651C69.5353 5.65708 69.4489 5.17633 69.4599 4.69285C69.4489 4.20937 69.5353 3.72862 69.7139 3.27918C69.8924 2.82974 70.1595 2.4208 70.4993 2.07666C70.8387 1.73711 71.2418 1.46783 71.6855 1.28426C72.1292 1.10068 72.6047 1.00641 73.0848 1.00684C73.565 1.00726 74.0403 1.10238 74.4837 1.28674C74.927 1.4711 75.3296 1.74109 75.6685 2.08125C76.0085 2.42448 76.2761 2.83251 76.4554 3.28113C76.6348 3.72974 76.7222 4.20981 76.7124 4.69285C76.7231 5.17629 76.6366 5.65695 76.4581 6.10635C76.2795 6.55574 76.0126 6.96471 75.6731 7.30903ZM71.1688 6.71819C71.6774 7.22599 72.3668 7.5112 73.0856 7.5112C73.8043 7.5112 74.4937 7.22599 75.0024 6.71819C75.2632 6.45114 75.4672 6.13398 75.602 5.78587C75.7369 5.43776 75.7997 5.06593 75.7868 4.69285C75.7997 4.31976 75.7369 3.94793 75.602 3.59982C75.4672 3.25171 75.2632 2.93455 75.0024 2.6675C74.4937 2.1597 73.8043 1.87449 73.0856 1.87449C72.3668 1.87449 71.6774 2.1597 71.1688 2.6675C70.9083 2.93476 70.7046 3.25199 70.57 3.60007C70.4354 3.94815 70.3727 4.31987 70.3856 4.69285C70.3727 5.06582 70.4354 5.43755 70.57 5.78562C70.7046 6.1337 70.9083 6.45093 71.1688 6.71819Z" fill="white" stroke="white" stroke-width="0.14112" stroke-miterlimit="10"/>
<path d="M77.9849 8.22118V1.16504H79.0886L82.5179 6.65413H82.5569L82.5179 5.29429V1.16504H83.4252V8.22118H82.4788L78.891 2.46619H78.8519L78.891 3.82603V8.22118H77.9849Z" fill="white" stroke="white" stroke-width="0.14112" stroke-miterlimit="10"/>
<path d="M69.2367 18.5128C68.2482 18.5165 67.283 18.8131 66.463 19.3649C65.6429 19.9168 65.0048 20.6993 64.6291 21.6136C64.2534 22.5279 64.1571 23.533 64.3522 24.502C64.5474 25.471 65.0252 26.3605 65.7255 27.0581C66.4258 27.7557 67.3171 28.2302 68.2868 28.4217C69.2566 28.6131 70.2613 28.513 71.1741 28.1338C72.087 27.7547 72.8671 27.1136 73.4158 26.2914C73.9646 25.4693 74.2575 24.503 74.2575 23.5145C74.2672 22.8534 74.1438 22.197 73.8947 21.5846C73.6455 20.9721 73.2758 20.416 72.8074 19.9493C72.3389 19.4827 71.7814 19.115 71.168 18.8682C70.5546 18.6214 69.8978 18.5005 69.2367 18.5128ZM69.2367 26.546C68.6279 26.5894 68.0202 26.4485 67.4927 26.1417C66.9651 25.8349 66.5421 25.3763 66.2788 24.8258C66.0155 24.2752 65.9241 23.6581 66.0164 23.0549C66.1087 22.4516 66.3805 21.8901 66.7964 21.4435C67.2123 20.9969 67.7531 20.6858 68.3482 20.5508C68.9434 20.4158 69.5654 20.4631 70.1333 20.6866C70.7012 20.91 71.1887 21.2993 71.5323 21.8037C71.8758 22.3081 72.0596 22.9042 72.0596 23.5145C72.0781 23.9001 72.0192 24.2854 71.8865 24.6479C71.7538 25.0103 71.5499 25.3426 71.2869 25.6251C71.0238 25.9075 70.7069 26.1345 70.3548 26.2927C70.0027 26.4508 69.6225 26.537 69.2367 26.546ZM58.2839 18.5128C57.2954 18.5165 56.3302 18.813 55.5101 19.3649C54.6901 19.9168 54.0519 20.6992 53.6762 21.6135C53.3005 22.5278 53.2042 23.5329 53.3993 24.502C53.5944 25.471 54.0723 26.3605 54.7726 27.0581C55.4728 27.7557 56.3641 28.2302 57.3339 28.4217C58.3036 28.6132 59.3084 28.513 60.2212 28.1339C61.1341 27.7547 61.9142 27.1136 62.4629 26.2914C63.0117 25.4693 63.3046 24.503 63.3046 23.5145C63.3143 22.8534 63.1909 22.1971 62.9418 21.5846C62.6927 20.9721 62.3229 20.416 61.8545 19.9494C61.3861 19.4827 60.8286 19.115 60.2152 18.8682C59.6018 18.6214 58.945 18.5006 58.2839 18.5128ZM58.2839 26.546C57.6751 26.5894 57.0674 26.4485 56.5399 26.1417C56.0123 25.8349 55.5894 25.3763 55.3261 24.8258C55.0628 24.2752 54.9713 23.6581 55.0636 23.0549C55.156 22.4516 55.4278 21.8901 55.8437 21.4435C56.2596 20.9969 56.8003 20.6858 57.3955 20.5508C57.9906 20.4158 58.6126 20.4631 59.1805 20.6866C59.7484 20.91 60.2359 21.2993 60.5795 21.8037C60.923 22.3081 61.1068 22.9042 61.1068 23.5145C61.1253 23.9001 61.0665 24.2854 60.9338 24.6479C60.8011 25.0103 60.5972 25.3426 60.3341 25.6251C60.0711 25.9076 59.7542 26.1346 59.4021 26.2927C59.05 26.4509 58.6698 26.537 58.2839 26.546ZM45.2549 20.0475V22.1694H50.3327C50.2594 23.1647 49.8521 24.106 49.1769 24.8408C48.668 25.3595 48.0561 25.7657 47.3806 26.0333C46.7051 26.3009 45.9809 26.4239 45.2549 26.3944C43.7708 26.3743 42.3542 25.7706 41.3118 24.7139C40.2694 23.6573 39.6849 22.2327 39.6849 20.7484C39.6849 19.2641 40.2694 17.8395 41.3118 16.7828C42.3542 15.7262 43.7708 15.1225 45.2549 15.1024C46.6805 15.0838 48.0559 15.6285 49.0822 16.6181L50.5789 15.1214C49.8787 14.4281 49.0471 13.8816 48.1328 13.514C47.2186 13.1464 46.2402 12.9649 45.2549 12.9804C44.2253 12.9654 43.203 13.1553 42.2474 13.5389C41.2918 13.9226 40.422 14.4924 39.6886 15.2152C38.9552 15.938 38.3728 16.7994 37.9753 17.7493C37.5778 18.6992 37.373 19.7187 37.373 20.7484C37.373 21.7781 37.5778 22.7976 37.9753 23.7475C38.3728 24.6974 38.9552 25.5588 39.6886 26.2816C40.422 27.0044 41.2918 27.5742 42.2474 27.9579C43.203 28.3415 44.2253 28.5314 45.2549 28.5164C46.261 28.5581 47.2644 28.3854 48.1986 28.0098C49.1328 27.6341 49.9765 27.0641 50.6736 26.3376C51.9113 24.9866 52.5709 23.2049 52.5115 21.3737C52.5163 20.929 52.4782 20.4849 52.3976 20.0475H45.2549ZM98.5386 21.6957C98.238 20.7897 97.6658 19.9982 96.8997 19.4288C96.1336 18.8593 95.2108 18.5395 94.2567 18.5128C93.614 18.5168 92.9788 18.651 92.3895 18.9074C91.8003 19.1639 91.2691 19.5371 90.8281 20.0046C90.3872 20.4722 90.0456 21.0242 89.8241 21.6275C89.6025 22.2308 89.5056 22.8727 89.5392 23.5145C89.5247 24.1721 89.6429 24.8259 89.8867 25.4368C90.1306 26.0477 90.4951 26.6032 90.9584 27.0701C91.4218 27.537 91.9744 27.9057 92.5835 28.1542C93.1925 28.4027 93.8453 28.5258 94.503 28.5164C95.327 28.5209 96.1392 28.3208 96.8667 27.9339C97.5942 27.547 98.2143 26.9854 98.6711 26.2997L96.966 25.1629C96.7105 25.5872 96.3492 25.9377 95.9174 26.1802C95.4856 26.4226 94.9982 26.5487 94.503 26.546C93.9935 26.5654 93.4898 26.4314 93.0574 26.1611C92.6249 25.8908 92.2837 25.4969 92.0779 25.0303L98.766 22.2642L98.5386 21.6957ZM91.718 23.363C91.6944 22.999 91.7437 22.6339 91.863 22.2891C91.9822 21.9444 92.169 21.6269 92.4125 21.3552C92.6559 21.0835 92.9511 20.8631 93.2808 20.7068C93.6105 20.5506 93.968 20.4617 94.3324 20.4453C94.7119 20.4204 95.0903 20.5077 95.4205 20.6963C95.7507 20.885 96.0181 21.1667 96.1892 21.5063L91.718 23.363ZM86.2803 28.2132H88.478V13.511H86.2803V28.2132ZM82.6805 19.6306H82.6047C82.2706 19.2676 81.8628 18.98 81.4087 18.7873C80.9545 18.5945 80.4644 18.5009 79.9712 18.5128C78.6814 18.5677 77.4627 19.1186 76.5695 20.0506C75.6764 20.9827 75.1777 22.2237 75.1777 23.5146C75.1777 24.8055 75.6764 26.0465 76.5695 26.9785C77.4627 27.9105 78.6814 28.4615 79.9712 28.5164C80.4664 28.5296 80.9585 28.4347 81.4133 28.2384C81.8681 28.0421 82.2747 27.749 82.6047 27.3796H82.6805V28.0996C82.6805 30.0132 81.6575 31.0362 80.009 31.0362C79.4597 31.0231 78.9267 30.8467 78.4779 30.5295C78.0292 30.2123 77.685 29.7688 77.4893 29.2553L75.5757 30.0511C75.9363 30.9292 76.551 31.6796 77.3408 32.2062C78.1307 32.7327 79.0598 33.0115 80.009 33.0067C82.5858 33.0067 84.7646 31.491 84.7646 27.7964V18.8158H82.6805V19.6306ZM80.1607 26.546C79.4011 26.4815 78.6933 26.1343 78.1775 25.5729C77.6617 25.0115 77.3755 24.2769 77.3755 23.5146C77.3755 22.7522 77.6617 22.0176 78.1775 21.4563C78.6933 20.8949 79.4011 20.5476 80.1607 20.4832C80.5387 20.5017 80.909 20.596 81.2497 20.7606C81.5904 20.9253 81.8944 21.1568 82.1437 21.4415C82.393 21.7261 82.5824 22.058 82.7007 22.4174C82.8189 22.7768 82.8636 23.1564 82.8321 23.5335C82.8616 23.9082 82.8153 24.285 82.6959 24.6414C82.5764 24.9978 82.3863 25.3264 82.1369 25.6077C81.8875 25.8889 81.584 26.117 81.2444 26.2782C80.9049 26.4394 80.5363 26.5305 80.1607 26.546ZM108.833 13.5113H103.575V28.2132H105.769V22.6431H108.833C109.454 22.6771 110.075 22.5842 110.659 22.3702C111.242 22.1561 111.776 21.8253 112.227 21.3979C112.679 20.9706 113.038 20.4557 113.284 19.8848C113.53 19.3138 113.656 18.6988 113.656 18.0772C113.656 17.4556 113.53 16.8405 113.284 16.2696C113.038 15.6986 112.679 15.1837 112.227 14.7564C111.776 14.3291 111.242 13.9983 110.659 13.7842C110.075 13.5701 109.454 13.4772 108.833 13.5113ZM108.89 20.597H105.769V15.5574H108.89C109.225 15.5505 109.559 15.6105 109.87 15.734C110.182 15.8575 110.466 16.042 110.706 16.2767C110.945 16.5114 111.136 16.7915 111.266 17.1007C111.396 17.4099 111.463 17.7419 111.463 18.0772C111.463 18.4126 111.396 18.7446 111.266 19.0538C111.136 19.3629 110.945 19.6431 110.706 19.8778C110.466 20.1124 110.182 20.2969 109.87 20.4204C109.559 20.5439 109.225 20.604 108.89 20.597ZM122.452 18.4857C121.651 18.439 120.854 18.627 120.158 19.0269C119.463 19.4267 118.899 20.0209 118.536 20.7365L120.484 21.5499C120.678 21.1947 120.97 20.9035 121.326 20.712C121.682 20.5205 122.087 20.437 122.489 20.4717C123.046 20.4173 123.601 20.5859 124.034 20.9405C124.467 21.295 124.741 21.8066 124.797 22.3631V22.5144C124.092 22.1401 123.306 21.9452 122.508 21.947C120.409 21.947 118.272 23.1008 118.272 25.257C118.292 25.7115 118.403 26.1572 118.599 26.5677C118.795 26.9782 119.072 27.3452 119.412 27.6468C119.753 27.9485 120.15 28.1787 120.581 28.3238C121.012 28.4688 121.468 28.5258 121.922 28.4913C122.474 28.5239 123.026 28.4077 123.518 28.1548C124.01 27.902 124.426 27.5218 124.721 27.0539H124.797V28.1887H126.915V22.5523C126.915 19.9421 124.967 18.4857 122.452 18.4857ZM122.187 26.5431C121.468 26.5431 120.466 26.1839 120.466 25.2948C120.466 24.16 121.714 23.7249 122.792 23.7249C123.492 23.7063 124.185 23.8761 124.797 24.2167C124.716 24.8544 124.408 25.4413 123.928 25.869C123.448 26.2967 122.829 26.5361 122.187 26.5431ZM134.632 18.8072L132.117 25.1813H132.041L129.431 18.8072H127.067L130.982 27.7159L128.75 32.6714H131.039L137.072 18.8072H134.632ZM114.867 28.2132H117.061V13.5113H114.867V28.2132Z" fill="white"/>
<path d="M1.3791 1.79729C0.99347 2.25838 0.798751 2.84948 0.834841 3.44949V29.4585C0.798646 30.0586 0.993377 30.6497 1.3791 31.1107L1.46613 31.1955L16.0359 16.6259V16.2821L1.46613 1.71191L1.3791 1.79729Z" fill="url(#paint0_linear_4047_4066)"/>
<path d="M20.8924 21.4846L16.0361 16.626V16.2823L20.8936 11.4248L21.0031 11.4873L26.7571 14.7567C28.4007 15.6905 28.4007 17.2184 26.7571 18.1527L21.0031 21.4222L20.8924 21.4846Z" fill="url(#paint1_linear_4047_4066)"/>
<path d="M21.0031 21.4215L16.0362 16.4541L1.37939 31.1108C1.71429 31.4061 2.14196 31.575 2.5883 31.5882C3.03464 31.6014 3.47154 31.458 3.82329 31.183L21.0031 21.4215Z" fill="url(#paint2_linear_4047_4066)"/>
<path d="M21.0031 11.4869L3.82329 1.72543C3.47154 1.45035 3.03464 1.30698 2.5883 1.32017C2.14196 1.33336 1.71429 1.50227 1.37939 1.79764L16.0362 16.4544L21.0031 11.4869Z" fill="url(#paint3_linear_4047_4066)"/>
<defs>
<linearGradient id="paint0_linear_4047_4066" x1="14.7438" y1="3.17525" x2="-4.99267" y2="22.9118" gradientUnits="userSpaceOnUse">
<stop stop-color="#00A0FF"/>
<stop offset="0.00657" stop-color="#00A1FF"/>
<stop offset="0.2601" stop-color="#00BEFF"/>
<stop offset="0.5122" stop-color="#00D2FF"/>
<stop offset="0.7604" stop-color="#00DFFF"/>
<stop offset="1" stop-color="#00E3FF"/>
</linearGradient>
<linearGradient id="paint1_linear_4047_4066" x1="28.8971" y1="16.4547" x2="0.440984" y2="16.4547" gradientUnits="userSpaceOnUse">
<stop stop-color="#FFE000"/>
<stop offset="0.4087" stop-color="#FFBD00"/>
<stop offset="0.7754" stop-color="#FFA500"/>
<stop offset="1" stop-color="#FF9C00"/>
</linearGradient>
<linearGradient id="paint2_linear_4047_4066" x1="18.3042" y1="19.1532" x2="-8.46008" y2="45.9175" gradientUnits="userSpaceOnUse">
<stop stop-color="#FF3A44"/>
<stop offset="1" stop-color="#C31162"/>
</linearGradient>
<linearGradient id="paint3_linear_4047_4066" x1="-2.31105" y1="-6.86004" x2="9.64031" y2="5.09132" gradientUnits="userSpaceOnUse">
<stop stop-color="#32A071"/>
<stop offset="0.0685" stop-color="#2DA771"/>
<stop offset="0.4762" stop-color="#15CF74"/>
<stop offset="0.8009" stop-color="#06E775"/>
<stop offset="1" stop-color="#00F076"/>
</linearGradient>
</defs>
</svg>
