<svg width="60" height="60" viewBox="0 0 60 60" fill="none" xmlns="http://www.w3.org/2000/svg">
<rect x="0.5" y="0.501465" width="59" height="59" rx="9.5" stroke="#016670"/>
<path d="M28.3384 14.1764C28.9697 12.4049 31.475 12.4049 32.1063 14.1764L32.9013 16.4071C33.3416 17.6428 34.8322 18.1271 35.9148 17.3863L37.8691 16.0488C39.4211 14.9867 41.4479 16.4593 40.9174 18.2635L40.2493 20.5355C39.8793 21.794 40.8005 23.062 42.1118 23.0989L44.479 23.1656C46.3588 23.2186 47.133 25.6013 45.6433 26.7491L43.7674 28.1945C42.7283 28.9951 42.7283 30.5624 43.7674 31.3631L45.6433 32.8085C47.133 33.9563 46.3588 36.3389 44.479 36.3919L42.1117 36.4586C40.8005 36.4956 39.8793 37.7636 40.2493 39.0221L40.9174 41.294C41.4479 43.0983 39.4211 44.5708 37.8691 43.5087L35.9148 42.1713C34.8322 41.4305 33.3416 41.9148 32.9013 43.1504L32.1063 45.3812C31.475 47.1527 28.9697 47.1527 28.3384 45.3812L27.5435 43.1504C27.1031 41.9148 25.6125 41.4305 24.53 42.1713L22.5757 43.5087C21.0237 44.5708 18.9969 43.0983 19.5274 41.294L20.1954 39.0221C20.5655 37.7636 19.6442 36.4956 18.333 36.4586L15.9658 36.3919C14.0859 36.3389 13.3117 33.9563 14.8015 32.8084L16.6774 31.3631C17.7164 30.5624 17.7164 28.9951 16.6774 28.1945L14.8015 26.7491C13.3117 25.6013 14.0859 23.2186 15.9658 23.1656L18.333 23.0989C19.6442 23.062 20.5655 21.794 20.1954 20.5355L19.5274 18.2635C18.9969 16.4593 21.0237 14.9867 22.5757 16.0488L24.53 17.3863C25.6125 18.1271 27.1031 17.6428 27.5435 16.4071L28.3384 14.1764Z" fill="#016670"/>
</svg>
