<svg width="294" height="113" viewBox="0 0 294 113" fill="none" xmlns="http://www.w3.org/2000/svg">
<rect width="294" height="113" rx="15" fill="#F5F5F5"/>
<g clip-path="url(#clip0_2064_9396)">
<path d="M72.9566 46.2859C63.8747 46.2859 56.7784 53.0785 56.7784 62.1719C56.7784 71.2652 63.6954 77.9997 72.9566 77.9997C82.2178 77.9997 89.255 71.149 89.255 62.1137C89.255 53.1367 82.3381 46.2859 72.9566 46.2859ZM73.0179 71.4463C67.846 71.4463 64.0562 67.4888 64.0562 62.1741C64.0562 56.799 67.7848 52.8438 72.9566 52.8438C78.1897 52.8438 81.9772 56.8594 81.9772 62.1741C81.9772 67.4888 78.1897 71.4463 73.0179 71.4463ZM91.2384 53.197H95.7499V77.4117H102.966V46.8762H91.2384V53.197ZM38.6169 52.8415C42.4067 52.8415 45.4136 55.1445 46.555 58.5699H54.1937C52.8094 51.2473 46.6753 46.2859 38.6782 46.2859C29.5962 46.2859 22.5 53.0785 22.5 62.1741C22.5 71.2697 29.417 78.002 38.6782 78.002C46.496 78.002 52.7504 73.0405 54.1347 65.6576H46.555C45.4726 69.083 42.4657 71.4463 38.6759 71.4463C33.4428 71.4463 29.7755 67.4888 29.7755 62.1741C29.7778 56.799 33.386 52.8415 38.6169 52.8415ZM228.357 59.2205L223.065 58.4536C220.539 58.1003 218.735 57.2731 218.735 55.3234C218.735 53.197 221.081 52.135 224.267 52.135C227.755 52.135 229.982 53.6107 230.463 56.0321H237.439C236.656 49.8902 231.845 46.2881 224.449 46.2881C216.81 46.2881 211.759 50.1272 211.759 55.5604C211.759 60.7566 215.067 63.7705 221.742 64.7141L227.034 65.481C229.621 65.8343 231.064 66.8404 231.064 68.7297C231.064 71.1512 228.538 72.1551 225.05 72.1551C220.779 72.1551 218.374 70.4424 218.013 67.8443H210.917C211.579 73.8097 216.329 78.002 224.989 78.002C232.868 78.002 238.099 74.4581 238.099 68.3742C238.099 62.941 234.311 60.1059 228.357 59.2205ZM99.3581 34.2971C96.7121 34.2971 94.7264 36.1864 94.7264 38.7845C94.7264 41.3826 96.7098 43.2719 99.3581 43.2719C102.004 43.2719 103.99 41.3826 103.99 38.7845C103.99 36.1864 102.004 34.2971 99.3581 34.2971ZM205.264 57.3312C205.264 50.7174 201.175 46.2881 192.515 46.2881C184.336 46.2881 179.766 50.3642 178.862 56.6246H186.02C186.381 54.2032 188.305 52.1954 192.394 52.1954C196.064 52.1954 197.868 53.7895 197.868 55.7392C197.868 58.2792 194.559 58.9276 190.47 59.3412C184.937 59.9315 178.082 61.8208 178.082 68.9086C178.082 74.4022 182.232 77.9438 188.847 77.9438C194.019 77.9438 197.267 75.8175 198.892 72.4502C199.132 75.462 201.417 77.4117 204.606 77.4117H208.815V71.0931H205.266V57.3312H205.264ZM198.168 65.0092C198.168 69.0852 194.559 72.097 190.168 72.097C187.461 72.097 185.176 70.9746 185.176 68.6135C185.176 65.6017 188.845 64.7745 192.213 64.4212C195.46 64.126 197.264 63.4173 198.168 62.0579V65.0092ZM159.859 46.2859C155.828 46.2859 152.461 47.9405 150.055 50.7152V34.002H142.839V77.4117H149.935V73.396C152.341 76.2893 155.77 78.002 159.859 78.002C168.519 78.002 175.075 71.2697 175.075 62.1741C175.075 53.0785 168.398 46.2859 159.859 46.2859ZM158.776 71.4463C153.605 71.4463 149.815 67.4888 149.815 62.1741C149.815 56.8594 153.664 52.8438 158.835 52.8438C164.068 52.8438 167.736 56.8013 167.736 62.1741C167.736 67.4888 163.948 71.4463 158.776 71.4463ZM125.578 46.2859C120.887 46.2859 117.819 48.1752 116.015 50.8337V46.8762H108.858V77.4094H116.074V60.8147C116.074 56.1484 119.081 52.8415 123.531 52.8415C127.682 52.8415 130.267 55.7348 130.267 59.9293V77.4117H137.483V59.3994C137.485 51.7191 133.457 46.2859 125.578 46.2859ZM272.5 61.1702C272.5 52.4301 266.005 46.2881 257.284 46.2881C248.023 46.2881 241.226 53.1389 241.226 62.1741C241.226 71.6833 248.504 78.002 257.404 78.002C264.923 78.002 270.816 73.6308 272.318 67.4307H264.8C263.718 70.1473 261.072 71.6833 257.522 71.6833C252.891 71.6833 249.403 68.8482 248.622 63.8868H272.498V61.1702H272.5ZM249.044 58.8069C250.188 54.5542 253.435 52.4883 257.164 52.4883C261.253 52.4883 264.38 54.7912 265.102 58.8069H249.044Z" fill="#0052FF"/>
</g>
<defs>
<clipPath id="clip0_2064_9396">
<rect width="250" height="44.8718" fill="white" transform="translate(22.5 34.002)"/>
</clipPath>
</defs>
</svg>
