<svg width="294" height="113" viewBox="0 0 294 113" fill="none" xmlns="http://www.w3.org/2000/svg">
<rect width="294" height="113" rx="15" fill="#2F2F2F"/>
<g clip-path="url(#clip0_2064_9429)">
<path d="M50.8502 52.4902L59.3289 43.9481L67.811 52.4972L72.7417 47.5241L59.3289 34.002L45.916 47.5206L50.8502 52.4902Z" fill="#F3BA2F"/>
<path d="M37.498 56.0027L42.4304 51.0314L47.3627 56.0027L42.4304 60.9739L37.498 56.0027Z" fill="#F3BA2F"/>
<path d="M50.8512 59.5137L59.3299 68.0593L67.8121 59.5103L72.7462 64.4764L72.7428 64.4798L59.3299 78.002L45.9171 64.4868L45.9102 64.4798L50.8512 59.5137Z" fill="#F3BA2F"/>
<path d="M71.2871 56.0039L76.2194 51.0327L81.1518 56.0039L76.2194 60.9752L71.2871 56.0039Z" fill="#F3BA2F"/>
<path d="M64.3334 56.0001L59.3303 50.9541L55.6306 54.683L55.203 55.1105L54.3272 55.9932L54.3203 56.0001L54.3272 56.0106L59.3303 61.0497L64.3334 56.0036L64.3369 56.0001H64.3334Z" fill="#F3BA2F"/>
<path d="M88.8477 44.6638H99.5779C102.24 44.6638 104.253 45.3589 105.619 46.749C106.133 47.2625 106.539 47.8759 106.811 48.5522C107.083 49.2284 107.216 49.9533 107.202 50.6829V50.749C107.211 51.3466 107.128 51.9422 106.957 52.5144C106.804 53.007 106.582 53.4751 106.298 53.9045C106.033 54.3094 105.713 54.6745 105.347 54.9888C104.988 55.2993 104.596 55.5675 104.178 55.7881C105.385 56.2119 106.471 56.9279 107.339 57.8732C108.107 58.7536 108.491 59.9699 108.491 61.5222V61.5882C108.513 62.5577 108.304 63.5182 107.881 64.3893C107.471 65.1918 106.87 65.8796 106.133 66.391C105.299 66.9547 104.37 67.3609 103.391 67.59C102.229 67.8678 101.038 68.002 99.8434 67.9896H88.8477V44.6638ZM98.5022 54.0956C99.4305 54.1408 100.354 53.9395 101.181 53.5118C101.504 53.3219 101.767 53.0449 101.941 52.712C102.116 52.3791 102.194 52.0036 102.167 51.6282V51.5622C102.184 51.2162 102.115 50.8715 101.965 50.5599C101.815 50.2483 101.589 49.9799 101.309 49.7794C100.736 49.3693 99.9101 49.1643 98.8297 49.1643H93.8094V54.0956H98.5022ZM99.8572 63.4961C100.782 63.5484 101.703 63.3351 102.512 62.881C102.828 62.6768 103.083 62.3912 103.251 62.0538C103.42 61.7164 103.496 61.3396 103.471 60.9627V60.8967C103.483 60.5384 103.408 60.1825 103.253 59.8602C103.097 59.5379 102.865 59.259 102.578 59.0478C101.985 58.5845 101.026 58.3528 99.7021 58.3528H93.8094V63.4961H99.8572Z" fill="#F3BA2F"/>
<path d="M114.883 44.6638H119.976V67.9966H114.883V44.6638Z" fill="#F3BA2F"/>
<path d="M127.684 44.6638H132.38L143.234 59.0235V44.6638H148.261V67.9966H143.927L132.718 53.1643V67.9966H127.684V44.6638Z" fill="#F3BA2F"/>
<path d="M163.681 44.4971H168.371L178.291 67.9966H172.974L170.857 62.7629H161.068L158.951 67.9966H153.758L163.681 44.4971ZM169.04 58.2312L165.957 50.6621L162.888 58.2312H169.04Z" fill="#F3BA2F"/>
<path d="M183.797 44.6638H188.493L199.341 59.0235V44.6638H204.368V67.9966H200.034L188.824 53.1643V67.9966H183.797V44.6638Z" fill="#F3BA2F"/>
<path d="M222.698 68.4067C221.075 68.4207 219.466 68.1039 217.967 67.4754C216.556 66.8882 215.276 66.0225 214.203 64.929C213.129 63.8356 212.284 62.5367 211.716 61.1087C211.117 59.6151 210.813 58.0178 210.823 56.4067V56.3407C210.796 53.1651 212.008 50.1061 214.198 47.8229C215.276 46.7076 216.566 45.8234 217.991 45.2234C219.541 44.5762 221.206 44.2534 222.884 44.2747C223.876 44.2672 224.867 44.3568 225.842 44.5423C226.677 44.7013 227.493 44.947 228.277 45.2755C228.988 45.5774 229.665 45.9573 230.294 46.4085C230.908 46.8484 231.484 47.339 232.018 47.875L228.78 51.6422C227.953 50.8729 227.025 50.2216 226.022 49.7065C225.036 49.2316 223.955 48.9937 222.863 49.0114C221.954 49.0016 221.054 49.1869 220.222 49.5548C219.39 49.9226 218.644 50.4648 218.036 51.1452C217.433 51.8239 216.96 52.61 216.643 53.4632C216.311 54.3649 216.144 55.3198 216.15 56.2816V56.3477C216.147 57.3081 216.314 58.2613 216.643 59.1626C216.956 60.0189 217.424 60.8094 218.022 61.4945C218.626 62.1833 219.369 62.7335 220.202 63.1076C221.035 63.4817 221.938 63.6711 222.849 63.663C224.011 63.6999 225.163 63.4481 226.204 62.9298C227.196 62.385 228.113 61.7121 228.932 60.928L232.173 64.2295C231.601 64.8555 230.982 65.4364 230.321 65.9671C229.673 66.4841 228.968 66.9259 228.221 67.2842C227.426 67.6617 226.587 67.9406 225.725 68.1148C224.729 68.3162 223.714 68.414 222.698 68.4067Z" fill="#F3BA2F"/>
<path d="M238.182 44.6638H255.605V49.2303H243.192V53.9636H254.122V58.53H243.209V63.4301H255.777V67.9966H238.192L238.182 44.6638Z" fill="#F3BA2F"/>
</g>
<defs>
<clipPath id="clip0_2064_9429">
<rect width="218.275" height="44" fill="white" transform="translate(37.5 34.002)"/>
</clipPath>
</defs>
</svg>
