<svg width="294" height="113" viewBox="0 0 294 113" fill="none" xmlns="http://www.w3.org/2000/svg">
<rect width="294" height="113" rx="15" fill="#F5F5F5"/>
<g clip-path="url(#clip0_2064_9405)">
<path d="M93.6219 65.1226C89.1307 65.1226 86.3475 61.2773 86.3475 55.957C86.3475 50.6895 88.6898 46.7651 93.5943 46.7651C96.818 46.7651 98.9397 48.7404 99.326 51.3479H106.821C106.435 48.1083 104.919 45.2638 102.274 43.3675C100.125 41.7872 97.1489 40.8127 93.6219 40.8127C84.584 40.8127 78.7148 47.3445 78.7148 55.957C78.7148 64.6222 84.7769 70.9696 93.6773 70.9696C97.9478 70.9696 101.061 69.8371 103.376 67.6774C105.443 65.7811 106.821 63.1473 107.013 60.2765H99.5184C99.1882 63.0946 96.9835 65.1226 93.6219 65.1226Z" fill="#262626"/>
<path d="M120.847 49.0564C113.903 49.0564 109.246 53.7972 109.246 60.0393C109.246 66.2814 113.903 71.0223 120.847 71.0223C127.845 71.0223 132.419 66.2814 132.419 60.0393C132.419 53.7972 127.845 49.0564 120.847 49.0564ZM120.819 66.3077C117.815 66.3077 116.245 63.8057 116.245 60.0393C116.245 56.273 117.815 53.7182 120.819 53.7182C123.823 53.7182 125.448 56.273 125.448 60.0393C125.421 63.8057 123.823 66.3077 120.819 66.3077Z" fill="#262626"/>
<path d="M142.224 46.852C143.698 45.4429 143.698 43.1583 142.224 41.7492C140.749 40.3401 138.359 40.3401 136.885 41.7492C135.411 43.1583 135.411 45.4429 136.885 46.852C138.359 48.2612 140.749 48.2612 142.224 46.852Z" fill="#262626"/>
<path d="M133.549 54.2714H136.442V70.3639H143.331V49.6096H133.549V54.2714Z" fill="#262626"/>
<path d="M160.276 49.0037C157.274 49.0037 155.179 50.2152 153.581 52.4539H153.443V49.6095H146.803V70.3374H153.719V58.8804C153.719 56.3256 155.234 54.5083 157.521 54.5083C159.781 54.5083 160.911 56.0095 160.911 58.1956V70.3374H167.827V56.8524C167.827 52.2432 165.016 49.0037 160.276 49.0037Z" fill="#262626"/>
<path d="M184.028 41.3921H171.105V70.3375H183.56C187.363 70.3375 190.421 69.4157 192.791 67.7037C196.18 65.2279 198.054 61.1456 198.054 56.036C198.054 47.1864 192.405 41.3921 184.028 41.3921ZM183.009 64.3325H178.6V47.3972H183.092C187.804 47.3972 190.476 50.7947 190.476 56.0623C190.449 61.3562 187.914 64.3325 183.009 64.3325Z" fill="#262626"/>
<path d="M218.527 51.743C216.653 50.1364 214.201 49.1619 211.115 49.1619C204.501 49.1619 199.982 53.9027 199.982 60.0921C199.982 66.3605 204.391 71.1014 211.556 71.1014C214.311 71.1014 216.515 70.4166 218.334 69.205C220.235 67.9408 221.503 66.1761 221.971 64.3062H215.248C214.642 65.5967 213.457 66.3605 211.638 66.3605C208.8 66.3605 207.202 64.6222 206.761 61.8304H222.357C222.385 57.59 221.117 54.008 218.527 51.743ZM206.788 57.8797C207.257 55.4039 208.607 53.8237 211.225 53.8237C213.457 53.8237 215.083 55.4039 215.331 57.8797H206.788Z" fill="#262626"/>
<path d="M235.97 57.3793C233.214 56.9052 230.762 56.6945 230.762 55.2459C230.762 53.9553 232.084 53.3495 233.765 53.3495C235.666 53.3495 236.989 53.929 237.237 55.7726H243.602C243.271 51.6903 239.965 49.1355 233.82 49.1355C228.695 49.1355 224.451 51.4006 224.451 55.7726C224.451 60.6451 228.475 61.5933 232.249 62.1991C235.143 62.6732 237.76 62.8839 237.76 64.7539C237.76 66.0971 236.438 66.8082 234.371 66.8082C232.084 66.8082 230.651 65.8074 230.376 63.7267H223.846C224.066 68.3095 228.034 71.1013 234.399 71.1013C240.075 71.1013 244.263 68.7573 244.263 64.2271C244.291 58.9332 239.8 57.985 235.97 57.3793Z" fill="#262626"/>
<path d="M260.52 57.4056L268.153 49.6095H260.189L253.742 56.6154V41.3921H246.936V70.3638H253.742V63.99L255.836 61.883L261.043 70.3638H269.034L260.52 57.4056Z" fill="#262626"/>
<path d="M48.35 57.8798C49.5066 57.8798 50.4442 56.9836 50.4442 55.8781C50.4442 54.7726 49.5066 53.8765 48.35 53.8765C47.1935 53.8765 46.2559 54.7726 46.2559 55.8781C46.2559 56.9836 47.1935 57.8798 48.35 57.8798Z" fill="#F8BF1E"/>
<path d="M65.0473 57.8798C66.2038 57.8798 67.1414 56.9836 67.1414 55.8781C67.1414 54.7726 66.2038 53.8765 65.0473 53.8765C63.8907 53.8765 62.9531 54.7726 62.9531 55.8781C62.9531 56.9836 63.8907 57.8798 65.0473 57.8798Z" fill="#F8BF1E"/>
<path d="M65.0473 73.8669C66.2038 73.8669 67.1414 72.9707 67.1414 71.8652C67.1414 70.7597 66.2038 69.8635 65.0473 69.8635C63.8907 69.8635 62.9531 70.7597 62.9531 71.8652C62.9531 72.9707 63.8907 73.8669 65.0473 73.8669Z" fill="#F8BF1E"/>
<path d="M71.1922 39.5222C70.9717 36.5987 68.5194 34.2283 65.4608 34.0176C63.5044 33.8859 61.7409 34.597 60.5009 35.8085C59.5641 36.7304 58.2966 37.2835 56.9464 37.2835H56.4504C55.0727 37.2835 53.7776 36.7304 52.8132 35.7822C51.6834 34.676 50.1128 34.0176 48.3769 34.0176C46.6409 34.0176 45.0703 34.7023 43.9406 35.7822C42.9761 36.7304 41.6811 37.2835 40.3034 37.2835H39.8349C38.4848 37.2835 37.1897 36.783 36.2528 35.8612C36.0599 35.6768 35.867 35.4925 35.6742 35.3344C33.332 33.5171 29.8877 33.5698 27.6282 35.4925C24.9003 37.7839 24.7901 41.7873 27.3251 44.2103C27.3527 44.2366 27.3802 44.263 27.4078 44.2893C28.3997 45.1848 28.9233 46.4491 28.9233 47.7396V48.1874C28.9233 49.5043 28.3446 50.7421 27.3526 51.664C26.1954 52.7438 25.5065 54.2451 25.5065 55.9044C25.5065 57.5637 26.2229 59.0649 27.3526 60.1448C28.3446 61.0666 28.9233 62.3045 28.9233 63.6214V64.2272C28.9233 65.5177 28.3446 66.7293 27.3802 67.6248C26.1678 68.7573 25.4238 70.3639 25.5065 72.1285C25.6443 75.2364 28.2895 77.7385 31.5134 77.8439C33.3871 77.8966 35.068 77.1854 36.2528 76.0002C37.1897 75.0784 38.4572 74.499 39.8074 74.499H40.3309C41.6811 74.499 42.9486 75.0521 43.8855 76.0002C45.1254 77.2381 46.9165 77.9492 48.8729 77.8176C51.9314 77.6068 54.4113 75.2364 54.6318 72.2866C54.8798 68.7837 52.0141 65.8865 48.4045 65.8865C46.696 65.8865 45.1254 66.5449 43.9957 67.6248C43.0313 68.5466 41.7362 69.0997 40.386 69.0997H39.8074C38.4572 69.0997 37.1346 68.5993 36.1701 67.6511C36.1426 67.6248 36.1426 67.6248 36.115 67.5984C35.1231 66.6766 34.5444 65.4387 34.5444 64.1218V63.5951C34.5444 62.2782 35.1231 61.0403 36.115 60.1185C37.2723 59.0386 37.9612 57.5373 37.9612 55.878C37.9612 54.2188 37.2448 52.7175 36.115 51.6376C35.1231 50.7158 34.5444 49.4779 34.5444 48.161V47.687C34.5444 46.3701 35.1231 45.1321 36.0875 44.2103C36.115 44.184 36.115 44.184 36.1426 44.1577C36.1701 44.1313 36.1701 44.1313 36.1977 44.105C37.1621 43.1832 38.4572 42.6301 39.8349 42.6301H40.3309C41.7087 42.6301 43.0037 43.1832 43.9681 44.1313C45.0979 45.2375 46.6685 45.896 48.4045 45.896C50.1404 45.896 51.711 45.2112 52.8407 44.1313C53.8051 43.1832 55.1003 42.6301 56.4779 42.6301H56.9188C58.2966 42.6301 59.5916 43.1832 60.556 44.1313C61.6858 45.2375 63.2564 45.896 64.9924 45.896C68.5745 45.9223 71.4401 43.0251 71.1922 39.5222Z" fill="#F8BF1E"/>
</g>
<defs>
<clipPath id="clip0_2064_9405">
<rect width="243.535" height="44" fill="white" transform="translate(25.5 34.002)"/>
</clipPath>
</defs>
</svg>
