<svg width="295" height="113" viewBox="0 0 295 113" fill="none" xmlns="http://www.w3.org/2000/svg">
<rect y="0.00195312" width="294" height="113" rx="15" fill="#F5F5F5"/>
<path d="M83.9405 65.7994H88.913V46.292H95.4155V41.5745H77.4805V46.292H83.9405V65.7994ZM95.4155 65.7994H100.09V57.6395C100.09 54.792 101.535 53.092 103.788 53.092C104.553 53.092 105.19 53.2194 105.913 53.4744V48.7145C105.403 48.587 104.85 48.502 104.34 48.502C102.428 48.502 100.685 49.777 100.09 51.4345V48.7145H95.4155V65.7994ZM114.88 66.1819C117.218 66.1819 119.003 64.9919 119.81 63.8869V65.7994H124.485V48.7569H119.81V50.6694C119.045 49.5644 117.26 48.3745 114.88 48.3745C110.333 48.3745 106.848 52.4544 106.848 57.2994C106.848 62.1019 110.333 66.1819 114.88 66.1819ZM115.858 61.9319C113.265 61.9319 111.565 59.9769 111.565 57.2994C111.565 54.6219 113.265 52.667 115.858 52.667C118.45 52.667 120.15 54.6219 120.15 57.2994C120.15 59.9769 118.45 61.9319 115.858 61.9319ZM135.578 66.1819C137.915 66.1819 139.7 64.9919 140.508 63.8869V65.7994H145.183V40.2145H140.508V50.6694C139.743 49.5644 137.958 48.3745 135.578 48.3745C131.03 48.3745 127.545 52.4544 127.545 57.2994C127.588 62.1019 131.03 66.1819 135.578 66.1819ZM136.598 61.9319C134.005 61.9319 132.305 59.9769 132.305 57.2994C132.305 54.6219 134.005 52.667 136.598 52.667C139.19 52.667 140.89 54.6219 140.89 57.2994C140.89 59.9769 139.19 61.9319 136.598 61.9319ZM151.685 46.1645C153.343 46.1645 154.703 44.847 154.703 43.1895C154.703 41.532 153.343 40.2145 151.685 40.2145C150.07 40.2145 148.71 41.532 148.71 43.1895C148.753 44.8045 150.07 46.122 151.685 46.1645ZM149.39 65.7994H154.065V48.927H149.39V65.7994ZM158.188 65.7994H162.863V57.4694C162.863 54.1969 164.478 52.6244 166.645 52.6244C168.6 52.6244 169.663 54.112 169.663 56.577V65.7994H174.338V55.8119C174.338 51.3919 171.873 48.3745 167.75 48.3745C165.54 48.3745 163.798 49.3095 162.863 50.712V48.7569H158.188V65.7994ZM186.238 61.252C183.9 61.252 181.903 59.4669 181.903 56.8744C181.903 54.2394 183.858 52.497 186.238 52.497C188.575 52.497 190.573 54.2394 190.573 56.8744C190.573 59.5094 188.618 61.252 186.238 61.252ZM185.685 73.1944C190.913 73.1944 194.865 70.517 194.865 64.397V48.672H190.19V50.5845C189.255 49.267 187.428 48.2895 185.26 48.2895C180.798 48.2895 177.228 52.1145 177.228 56.917C177.228 61.677 180.798 65.502 185.26 65.502C187.428 65.502 189.298 64.5244 190.19 63.2494V64.397C190.19 67.117 188.363 69.072 185.6 69.072C183.688 69.072 181.775 68.4345 180.288 66.947L177.738 70.4319C179.693 72.3444 182.71 73.1944 185.685 73.1944ZM204.768 65.7994H209.188L219.218 41.5745H213.778L207.02 58.4045L200.178 41.5745H194.823L204.768 65.7994ZM223.468 45.952C225.125 45.952 226.443 44.6345 226.485 42.977C226.485 41.3195 225.125 40.002 223.468 40.002C221.853 40.002 220.493 41.3195 220.493 42.977C220.493 44.6345 221.895 45.952 223.468 45.952ZM221.173 65.7994H225.848V48.7145H221.173V65.7994ZM237.918 66.1819C241.488 66.1819 244.208 64.6944 245.823 62.3569L242.338 59.7645C241.573 60.9545 240.085 61.9319 237.918 61.9319C235.665 61.9319 233.668 60.6569 233.37 58.3619H246.12C246.205 57.6394 246.205 57.172 246.205 56.747C246.205 51.1795 242.295 48.3745 237.79 48.3745C232.605 48.3745 228.823 52.2419 228.823 57.2569C228.908 62.6544 232.86 66.1819 237.918 66.1819ZM233.583 55.217C234.05 53.1345 235.963 52.242 237.705 52.242C239.448 52.242 241.148 53.177 241.573 55.217H233.583ZM263.758 65.7994H268.39L274 48.7145H268.985L265.798 59.6369L262.313 48.7145H258.743L255.3 59.6369L252.07 48.7145H247.098L252.75 65.7994H257.383L260.57 56.1095L263.758 65.7994Z" fill="black"/>
<path d="M37.87 65.7992H28.435V51.0092H19V41.5742H37.8275V65.7992H37.87ZM56.74 65.7992H45.9875L56.1025 41.5742H66.855L56.74 65.7992ZM45.945 41.5742C48.92 41.5742 51.3425 43.9967 51.3425 46.9717C51.3425 49.9467 48.92 52.3692 45.945 52.3692C42.97 52.3692 40.5475 49.9467 40.5475 46.9717C40.59 43.9967 42.97 41.5742 45.945 41.5742Z" fill="black"/>
</svg>
