<svg width="294" height="113" viewBox="0 0 294 113" fill="none" xmlns="http://www.w3.org/2000/svg">
<rect width="294" height="113" rx="15" fill="#F5F5F5"/>
<g clip-path="url(#clip0_2064_9400)">
<path d="M237.342 69.5715C237.342 66.6073 239.749 64.2024 242.711 64.2024C245.675 64.2024 248.079 66.6073 248.079 69.5715C248.079 72.5358 245.675 74.9393 242.711 74.9393C239.749 74.9393 237.342 72.5358 237.342 69.5715Z" fill="#86BC24"/>
<path d="M66.1068 55.3524C66.1068 51.9516 65.4498 49.4285 64.1356 47.7847C62.8195 46.1427 60.8264 45.3224 58.1462 45.3224H55.2956V66.1188H57.4768C60.4535 66.1188 62.6347 65.2361 64.0237 63.4651C65.411 61.6974 66.1068 58.9925 66.1068 55.3524ZM76.2736 54.998C76.2736 61.1938 74.6083 65.9681 71.2773 69.3191C67.9464 72.6717 63.264 74.3479 57.228 74.3479H45.5V37.222H58.047C63.8666 37.222 68.3597 38.7462 71.5258 41.7928C74.6907 44.841 76.2736 49.2407 76.2736 54.9984M108.761 74.3477H118.093V37.0661H108.761V74.3477ZM131.203 60.4414C131.203 62.8184 131.514 64.6314 132.134 65.8773C132.755 67.1251 133.796 67.748 135.26 67.748C136.708 67.748 137.731 67.1251 138.328 65.8773C138.925 64.6314 139.221 62.8184 139.221 60.4414C139.221 58.0768 138.92 56.2932 138.316 55.0894C137.71 53.882 136.677 53.2778 135.212 53.2778C133.779 53.2778 132.755 53.8792 132.134 55.0753C131.514 56.2731 131.203 58.0612 131.203 60.4414ZM148.72 60.4414C148.72 64.9701 147.533 68.5031 145.153 71.0354C142.775 73.5693 139.445 74.8371 135.165 74.8371C131.06 74.8371 127.793 73.5414 125.368 70.9499C122.94 68.3586 121.726 64.8567 121.726 60.4416C121.726 55.9267 122.915 52.4186 125.295 49.9174C127.675 47.416 131.012 46.1656 135.309 46.1656C137.965 46.1656 140.314 46.7451 142.349 47.9025C144.385 49.0596 145.958 50.7176 147.062 52.8771C148.169 55.0334 148.72 57.5565 148.72 60.4414ZM152.426 74.3477H161.76V46.655H152.426V74.3477ZM152.426 43.3051H161.76V37.0647H152.426V43.3051ZM180.67 67.2845C181.93 67.2845 183.431 66.9643 185.182 66.329V73.2969C183.923 73.8499 182.727 74.2459 181.59 74.4806C180.453 74.7184 179.118 74.8364 177.591 74.8364C174.457 74.8364 172.199 74.0488 170.811 72.4764C169.43 70.9044 168.737 68.4901 168.737 65.2322V53.8161H165.468V46.6575H168.737V39.5853L178.143 37.9495V46.6572H184.098V53.8163H178.143V64.5951C178.143 66.388 178.986 67.2845 180.67 67.2845ZM202.273 67.2845C203.533 67.2845 205.033 66.9643 206.784 66.329V73.2969C205.527 73.8499 204.33 74.2459 203.192 74.4806C202.053 74.7184 200.724 74.8364 199.193 74.8364C196.06 74.8364 193.801 74.0488 192.417 72.4764C191.032 70.9044 190.34 68.4901 190.34 65.2322V53.8161H187.069V46.6575H190.34V39.4783L199.743 37.9495V46.6572H205.701V53.8163H199.743V64.5951C199.743 66.388 200.587 67.2845 202.273 67.2845ZM218.561 57.0678C218.689 55.5516 219.122 54.4406 219.862 53.7308C220.605 53.0223 221.521 52.6681 222.618 52.6681C223.814 52.6681 224.765 53.0658 225.47 53.8673C226.18 54.6643 226.55 55.7318 226.58 57.0678H218.561ZM231.724 49.4303C229.505 47.2555 226.357 46.1663 222.286 46.1663C218.005 46.1663 214.712 47.4169 212.403 49.9181C210.096 52.4195 208.942 56.0081 208.942 60.6847C208.942 65.2132 210.189 68.7057 212.678 71.1573C215.168 73.6088 218.666 74.8362 223.169 74.8362C225.332 74.8362 227.193 74.6887 228.753 74.395C230.303 74.1046 231.804 73.5793 233.26 72.8212L231.826 66.5803C230.768 67.0125 229.761 67.3448 228.811 67.5637C227.437 67.8825 225.93 68.0423 224.289 68.0423C222.491 68.0423 221.071 67.6028 220.03 66.7235C218.989 65.8426 218.434 64.6276 218.371 63.0802H235.053V58.828C235.053 54.7375 233.944 51.6038 231.724 49.4303ZM88.6603 57.0678C88.7877 55.5516 89.2213 54.4406 89.9606 53.7308C90.7016 53.0223 91.6197 52.6681 92.7184 52.6681C93.9114 52.6681 94.8623 53.0658 95.5692 53.8673C96.279 54.6643 96.6472 55.7318 96.6799 57.0678H88.6603ZM101.824 49.4303C99.6037 47.2555 96.4576 46.1663 92.3843 46.1663C88.1025 46.1663 84.8106 47.4169 82.5033 49.9181C80.1963 52.4195 79.0405 56.0081 79.0405 60.6847C79.0405 65.2132 80.2864 68.7057 82.7784 71.1573C85.2672 73.6088 88.7643 74.8362 93.2684 74.8362C95.4308 74.8362 97.2921 74.6887 98.8518 74.395C100.402 74.1046 101.903 73.5793 103.36 72.8212L101.925 66.5803C100.867 67.0125 99.8601 67.3448 98.9108 67.5637C97.5345 67.8825 96.0291 68.0423 94.3882 68.0423C92.5908 68.0423 91.1695 67.6028 90.1285 66.7235C89.0859 65.8426 88.5329 64.6276 88.4693 63.0802H105.152V58.828C105.152 54.7375 104.043 51.6038 101.824 49.4303Z" fill="#0F0B0B"/>
</g>
<defs>
<clipPath id="clip0_2064_9400">
<rect width="202.578" height="44" fill="white" transform="translate(45.5 34.002)"/>
</clipPath>
</defs>
</svg>
