<svg width="295" height="113" viewBox="0 0 295 113" fill="none" xmlns="http://www.w3.org/2000/svg">
<rect x="0.5" y="0.00195312" width="294" height="113" rx="15" fill="#F5F5F5"/>
<g clip-path="url(#clip0_2064_9446)">
<path d="M88.4362 36.002H71.5599V58.7759H94.3339V41.8997C94.3339 38.6319 91.7039 36.002 88.4362 36.002ZM66.3 36.002H63.3977C60.13 36.002 57.5 38.6319 57.5 41.8997V44.802H66.3V36.002ZM57.5 50.0619H66.3V58.8619H57.5V50.0619ZM85.627 72.8358H88.5293C91.7971 72.8358 94.427 70.2059 94.427 66.9381V64.129H85.627V72.8358ZM71.5599 64.129H80.3599V72.929H71.5599V64.129ZM57.5 64.129V67.0313C57.5 70.299 60.13 72.929 63.3977 72.929H66.3V64.129H57.5ZM116.836 38.3596H113.389V70.5642H131.626V67.4827H116.836V38.3596ZM142.691 46.8873C135.976 46.8873 131.261 51.8749 131.261 59.041V59.8651C131.354 62.9466 132.716 65.856 134.98 68.0274C137.159 70.0267 139.968 71.202 142.963 71.202H143.415C146.589 71.202 149.585 70.0195 151.942 68.0274L152.036 67.9342L150.495 65.3974L150.316 65.4906C148.409 67.2176 146.052 68.2137 143.515 68.2137C139.344 68.2137 135.08 65.4906 134.808 59.4137H152.229V59.2345C152.229 59.2345 152.322 58.1453 152.322 57.6007C152.301 51.0651 148.495 46.8873 142.691 46.8873ZM134.887 56.5042C135.611 52.4195 138.606 49.7896 142.505 49.7896C145.407 49.7896 148.581 51.5166 148.854 56.5042H134.887ZM172.265 49.6104V50.7928C170.811 48.342 168.095 46.8013 165.279 46.8013H165.006C158.836 46.8013 154.572 51.7029 154.572 58.8691C154.572 66.1283 158.657 71.0228 164.734 71.0228C169.542 71.0228 171.721 68.1205 172.445 66.8521V70.3922H175.712V38.3596H172.359V49.6104H172.265ZM165.185 68.0274C160.922 68.0274 158.112 64.4013 158.112 58.955C158.112 53.6951 161.108 49.9759 165.279 49.9759C168.819 49.9759 172.351 52.785 172.351 58.955C172.351 65.6697 168.632 68.0274 165.185 68.0274ZM195.577 50.0619V50.241C194.939 49.1518 192.947 46.7941 188.138 46.7941C182.062 46.7941 178.07 51.4235 178.07 58.4964C178.07 65.5694 182.241 70.3778 188.411 70.3778C191.765 70.3778 194.036 69.1954 195.577 66.7518V69.9264C195.577 74.3694 192.768 76.9134 187.773 76.9134C185.688 76.9134 183.509 76.3687 181.603 75.3726L181.424 75.2795L180.155 78.0886L180.335 78.1818C182.692 79.3642 185.322 79.9948 187.866 79.9948C193.219 79.9948 198.931 77.2717 198.931 69.7401V47.4319H195.577V50.0619ZM188.862 67.3896C184.419 67.3896 181.517 63.9427 181.517 58.5896C181.517 53.1433 184.054 50.0619 188.411 50.0619C193.219 50.0619 195.484 52.871 195.484 58.5896C195.577 64.215 193.219 67.3896 188.862 67.3896ZM212.632 46.8873C205.918 46.8873 201.295 51.8749 201.295 58.955V59.772C201.389 62.8534 202.75 65.7629 205.015 67.9342C207.193 69.9336 210.002 71.1088 212.998 71.1088H213.449C216.624 71.1088 219.619 69.9264 221.977 67.9342L222.07 67.841L220.436 65.3042L220.257 65.3974C218.351 67.1244 215.993 68.1205 213.456 68.1205C209.286 68.1205 205.022 65.3974 204.75 59.3205H222.249V59.1414C222.249 59.1414 222.342 58.0521 222.342 57.5075C222.342 51.0651 218.53 46.8873 212.632 46.8873ZM204.922 56.5042C205.645 52.4195 208.641 49.7896 212.539 49.7896C215.441 49.7896 218.616 51.5166 218.888 56.5042H204.922ZM236.495 47.3388C236.044 47.2456 235.679 47.2456 235.227 47.1596C232.052 47.1596 229.422 49.159 228.061 52.5127V47.3388H224.707L224.8 70.2919V70.471H228.247V60.7681C228.247 59.3134 228.426 57.7726 228.885 56.4111C229.974 52.871 232.425 50.6065 235.327 50.6065C235.693 50.6065 236.051 50.6065 236.417 50.6997H236.596V47.3459L236.495 47.3388Z" fill="#1D2028"/>
</g>
<defs>
<clipPath id="clip0_2064_9446">
<rect width="179.081" height="44" fill="white" transform="translate(57.5 36.002)"/>
</clipPath>
</defs>
</svg>
