<svg width="294" height="113" viewBox="0 0 294 113" fill="none" xmlns="http://www.w3.org/2000/svg">
<rect width="294" height="113" rx="15" fill="#F5F5F5"/>
<path fill-rule="evenodd" clip-rule="evenodd" d="M87.3191 29.1266C82.3257 29.7403 76.8301 32.3068 72.1436 36.268C71.1951 37.0491 69.2145 38.974 69.2145 39.0856C69.2145 39.1414 70.1629 40.1456 71.3346 41.3173L73.4547 43.4653L72.562 44.4696C69.2703 48.1798 67.0386 51.9457 65.6995 55.9349C64.8627 58.4456 64.5 60.5099 64.5 62.8253C64.5 64.9175 64.779 66.6192 65.4206 68.2651L65.6716 68.9346L71.8925 75.1554C77.0812 80.3442 78.2529 81.46 78.8945 81.8784C80.2335 82.7711 81.7957 83.3848 83.5253 83.7475C84.669 83.9986 87.3191 84.0823 88.5745 83.9149C93.54 83.3012 98.6729 80.9579 103.164 77.2198C104.336 76.2434 106.316 74.3744 106.316 74.2628C106.316 74.207 105.34 73.2027 104.168 72.0032L102.02 69.8273L102.69 69.1299C104.336 67.4003 106.344 64.6386 107.516 62.4626C109.19 59.422 110.278 56.1302 110.64 53.1174C110.78 51.8063 110.696 49.0166 110.473 47.9566C110.083 46.1712 109.469 44.7206 108.548 43.3258C108.074 42.6005 107.125 41.6241 101.881 36.3517L95.7438 30.2146L95.1022 29.9635C94.2374 29.6008 92.4521 29.1824 91.3641 29.0708C90.2761 28.9592 88.5745 28.9871 87.3191 29.1266ZM92.5915 30.7725C93.0379 30.8841 93.7632 31.0514 94.1537 31.1909C94.879 31.442 94.9069 31.442 96.0507 32.5857C97.0549 33.59 97.1944 33.7295 96.9434 33.7016C95.6043 33.4505 93.4563 33.3947 91.7825 33.6179C86.4265 34.2874 80.903 36.9933 75.8259 41.4567C75.3238 41.9031 74.8774 42.2936 74.7937 42.3494C74.71 42.4052 74.2637 42.0426 72.9526 40.7314L71.223 39.0019L72.3389 38.0255C76.9975 33.9527 82.1304 31.3862 87.1518 30.6609C88.4908 30.4656 91.4757 30.5493 92.5915 30.7725ZM99.9004 39.6435C102.355 40.0061 104.503 41.0662 106.093 42.6563C107.656 44.2185 108.66 46.227 109.134 48.7377C109.329 49.8535 109.329 52.3642 109.134 53.6753C108.492 57.7203 106.623 61.8768 103.722 65.6707C103.053 66.5634 101.463 68.4324 101.211 68.6277C101.072 68.7393 100.905 68.5998 99.454 67.1492C98.5613 66.2565 97.836 65.5033 97.836 65.4754C97.836 65.4475 98.0871 65.1407 98.394 64.8059C103.443 59.2267 105.814 52.2526 104.141 47.9287C103.471 46.2549 102.076 44.9996 100.263 44.4417C99.3424 44.1627 97.7244 44.0232 96.5249 44.1627C94.6838 44.3301 92.4242 45.0554 90.2483 46.1154C88.0723 47.1755 86.0917 48.5145 84.1669 50.2441L83.3021 50.9973L81.6562 49.3514L80.0103 47.7055L80.7077 47.0639C84.9759 43.0747 90.6388 40.2293 95.4927 39.5877C96.4691 39.504 98.9798 39.504 99.9004 39.6435ZM76.8301 49.2677C76.2164 49.9651 75.4353 50.9415 75.0448 51.4436C70.414 57.6087 68.2939 64.3038 69.1587 70.0783L69.2145 70.441L68.0707 69.3251C66.9828 68.2651 66.927 68.1814 66.7038 67.5119C64.5279 61.2631 67.2617 52.6432 73.7058 45.418L74.459 44.5811L76.1885 46.3107L77.9181 48.0403L76.8301 49.2677ZM98.6171 45.697L98.8403 45.7528L98.7845 46.9244C98.7287 48.3192 98.5334 49.463 98.2545 50.4394C97.3618 53.3685 95.7159 56.2976 93.3168 59.0593L92.3963 60.1194L90.6388 58.3619L88.8813 56.6044L89.6903 55.7117C91.4199 53.8148 93.01 51.611 93.9864 49.7419C94.5164 48.7377 95.2138 47.036 95.4091 46.2549C95.5206 45.7807 95.5206 45.7807 95.9391 45.7249C96.1623 45.697 96.4133 45.6691 96.497 45.6412C96.7202 45.6412 98.4219 45.6412 98.6171 45.697ZM93.6237 46.9244C93.2332 48.0124 92.3684 49.6861 91.5315 50.9415C90.6109 52.3363 89.9693 53.1732 88.6861 54.6238L87.7934 55.6559L86.0359 53.8985L84.2785 52.141L84.8643 51.611C86.6775 49.993 88.7976 48.5424 90.7504 47.5381C91.8104 47.0081 93.54 46.3107 93.7911 46.2828C93.819 46.2828 93.7632 46.5618 93.6237 46.9244ZM120.348 47.9845C120.265 48.0682 120.237 50.3836 120.237 58.864C120.237 69.1856 120.237 69.632 120.404 69.7715C120.544 69.9109 120.99 69.9109 124.756 69.9109C127.043 69.9109 129.526 69.8552 130.251 69.8273C133.181 69.632 135.44 68.6835 137.17 66.9539C138.537 65.587 139.401 63.6901 139.848 61.1794C140.043 59.952 140.043 57.3855 139.848 56.186C139.123 52.141 136.807 49.5188 133.097 48.4587C131.284 47.9566 131.144 47.9287 125.621 47.9008C121.52 47.9008 120.432 47.9008 120.348 47.9845ZM221.919 48.3471C221.835 48.4308 221.807 49.1282 221.807 50.9136V53.3685H220.747C220.05 53.3685 219.659 53.3964 219.575 53.48C219.436 53.6195 219.436 56.5207 219.575 56.6881C219.659 56.7718 220.05 56.7997 220.747 56.7997H221.807L221.835 61.7652C221.863 66.6192 221.863 66.7587 222.058 67.3166C222.588 68.8509 223.676 69.6878 225.434 69.9109C226.633 70.0504 228.335 69.9946 229.506 69.7715L229.757 69.7157L229.73 67.6792L229.702 65.6428L228.586 65.587C227.386 65.5312 227.191 65.4754 227.052 65.2244C226.996 65.1128 226.968 63.439 226.968 60.9562V56.8555L228.391 56.8276L229.813 56.7997V55.098V53.3964L228.391 53.3685L226.968 53.3406V50.9415C226.968 49.463 226.94 48.4866 226.884 48.375C226.8 48.2077 226.661 48.2076 224.429 48.2076C222.672 48.2634 222.002 48.2913 221.919 48.3471ZM130.614 53.0616C132.316 53.5079 133.432 54.7075 133.878 56.4649C134.213 57.804 134.213 60.0357 133.85 61.4305C133.487 62.7974 132.651 63.8854 131.535 64.4154C130.558 64.8896 129.973 64.9733 127.964 65.0291L126.151 65.0849V58.9477V52.8105L128.103 52.8663C129.526 52.8942 130.224 52.95 130.614 53.0616ZM147.659 53.1732C144.869 53.6753 142.721 55.5165 141.773 58.1945C140.517 61.7094 141.131 65.7265 143.251 67.9861C144.367 69.1577 145.427 69.7715 147.045 70.1899C150.142 70.971 153.461 70.162 155.665 68.0977C156.195 67.6235 157.562 65.8939 157.562 65.7265C157.562 65.5312 157.171 65.2802 155.581 64.4712C154.605 63.969 153.796 63.5506 153.768 63.5506C153.74 63.5506 153.573 63.8017 153.405 64.1085C153.015 64.8617 152.206 65.6986 151.62 66.0055C149.863 66.8703 147.798 66.3681 146.906 64.8617C146.654 64.4154 146.403 63.6343 146.403 63.2158V62.909H151.983C156.195 62.909 157.562 62.8811 157.646 62.7974C157.785 62.6579 157.785 61.5421 157.618 60.4262C157.171 57.4413 155.916 55.2933 153.908 54.0938C153.238 53.7032 151.955 53.2569 151.118 53.1174C150.281 52.9779 148.496 53.0058 147.659 53.1732ZM165.987 53.0616C165.206 53.1732 164.564 53.3127 164.062 53.48C161.244 54.3727 159.375 56.6881 158.789 59.9799C158.566 61.2352 158.65 63.2437 158.957 64.4433C159.375 66.0613 159.989 67.1213 161.105 68.1814C162.081 69.102 163.225 69.7436 164.759 70.162C165.206 70.3015 165.652 70.3294 166.796 70.3294C168.107 70.3294 168.302 70.3015 169.027 70.0783C170.478 69.632 171.594 68.9625 172.598 67.9024C173.268 67.205 174.021 66.1729 174.021 65.9497C174.021 65.866 173.881 65.7265 173.742 65.6149C173.156 65.2523 170.45 63.9132 170.311 63.9132C170.227 63.9132 170.087 64.1085 169.948 64.3875C169.613 65.1128 169.167 65.587 168.469 65.9218C167.939 66.1728 167.772 66.2286 167.186 66.2007C166.405 66.2007 165.903 66.0055 165.261 65.4475C163.588 63.969 163.476 59.8683 165.066 57.9992C166.07 56.8276 167.939 56.8276 169.139 57.9713C169.334 58.1666 169.613 58.5293 169.753 58.7803C169.892 59.0314 170.059 59.2546 170.143 59.2546C170.338 59.3104 173.77 57.3297 173.825 57.1345C173.853 56.9671 173.491 56.4092 172.961 55.7396C172.096 54.6796 170.394 53.6474 168.916 53.3127C168.163 53.1174 166.545 53.0058 165.987 53.0616ZM210.732 53.2569C209.812 53.4243 208.975 53.759 208.305 54.2611L207.775 54.6517L207.747 54.0938L207.719 53.5358L205.571 53.5079C203.674 53.48 203.395 53.5079 203.256 53.6474C203.089 53.7869 203.089 54.2053 203.089 64.527C203.089 72.7564 203.117 75.267 203.2 75.3507C203.368 75.5181 208.054 75.5181 208.194 75.3507C208.277 75.267 208.305 74.4301 208.305 72.1705V69.102L209.17 69.5483C210.342 70.1341 211.067 70.2736 212.434 70.2178C214.024 70.1341 214.972 69.8273 216.005 69.0462C217.455 67.9582 218.404 66.2844 218.934 63.969C219.213 62.7416 219.213 60.5936 218.934 59.2825C218.571 57.5529 217.985 56.3813 216.925 55.2654C215.363 53.5358 213.075 52.8384 210.732 53.2569ZM84.9201 54.9028C86.4265 56.4092 86.5102 56.5207 86.3986 56.6881C86.3149 56.7718 85.9522 57.1902 85.5617 57.6366C83.9995 59.4219 82.5489 61.5979 81.5725 63.6064C80.8751 65.0291 80.4567 66.2007 80.0382 67.7908C79.5082 69.883 79.5082 72.1984 80.094 73.8164C81.182 76.885 84.0553 78.3356 88.0723 77.8614C91.9499 77.3871 96.4133 75.1554 100.235 71.78L101.044 71.0547L102.69 72.7006L104.336 74.3465L103.638 74.9881C100.068 78.3077 95.2975 81.0137 91.1688 82.0179C89.4951 82.4364 88.3234 82.5759 86.7333 82.5759C84.6132 82.5759 83.051 82.2969 81.4051 81.5716C79.285 80.651 77.3323 78.8378 76.328 76.8292C75.0727 74.3465 74.71 71.2779 75.268 67.9582C76.0491 63.3274 78.6434 58.3619 82.4652 54.0938C82.8557 53.6474 83.2184 53.2848 83.2463 53.2848C83.2742 53.2848 84.0274 54.0101 84.9201 54.9028ZM184.175 53.3964C183.087 53.5637 181.72 54.0659 180.827 54.6517L180.548 54.847V54.2611C180.548 53.9264 180.493 53.6474 180.437 53.5637C180.353 53.48 179.712 53.4521 178.066 53.4521C176.001 53.4521 175.778 53.4521 175.667 53.6195C175.527 53.759 175.527 54.4564 175.527 61.7094C175.527 69.2693 175.527 69.632 175.695 69.7715C175.834 69.9109 176.141 69.9109 178.149 69.9109C179.935 69.9109 180.465 69.8831 180.548 69.7994C180.604 69.7157 180.66 68.0698 180.66 64.6943C180.688 60.0078 180.688 59.673 180.855 59.3662C181.19 58.6966 181.776 58.4177 183.478 58.1387C184.119 58.0271 184.761 57.9155 184.9 57.8876L185.151 57.8319V55.6559C185.151 53.48 185.123 53.229 184.844 53.2848C184.733 53.3127 184.454 53.3406 184.175 53.3964ZM186.462 53.5916C186.407 53.6753 186.379 53.8148 186.407 53.9543C186.435 54.0659 187.188 56.5207 188.08 59.3662C191.651 70.8594 191.456 70.1899 191.205 70.6362C190.982 71.0826 190.591 71.1663 189.196 71.1663C188.332 71.1663 187.885 71.1942 187.829 71.2779C187.746 71.3615 187.718 71.9195 187.718 73.2864C187.718 74.6533 187.746 75.2112 187.829 75.2949C187.969 75.4344 191.512 75.4344 192.432 75.3228C193.967 75.0997 195.222 74.0117 195.947 72.2821C196.115 71.9195 197.537 67.5956 199.127 62.6858C201.554 55.2654 202.029 53.7311 201.917 53.6195C201.833 53.5079 201.415 53.48 199.211 53.48H196.617L196.533 53.8706C196.477 54.0938 195.947 56.4092 195.333 59.0593C194.72 61.7094 194.218 63.9132 194.162 63.9411C194.134 63.969 193.548 61.6258 192.907 58.7524L191.707 53.48H189.113C186.965 53.48 186.546 53.48 186.462 53.5916ZM150.839 57.0787C151.676 57.4692 152.234 58.2224 152.401 59.143L152.457 59.4777H149.472H146.487L146.543 59.1988C146.655 58.6966 147.129 57.8877 147.519 57.5529C148.189 56.9671 148.775 56.7718 149.695 56.8276C150.142 56.8555 150.476 56.9392 150.839 57.0787ZM212.406 57.2181C213.187 57.6366 213.773 58.5014 214.052 59.673C214.247 60.5378 214.247 62.6021 214.024 63.4669C213.829 64.2201 213.438 65.0012 213.02 65.5312C212.35 66.3402 211.039 66.5634 209.979 66.0334C208.752 65.4196 208.166 64.0527 208.166 61.7652C208.166 59.6451 208.724 58.1387 209.756 57.3855C210.565 56.8276 211.541 56.7718 212.406 57.2181ZM90.3877 61.7373C88.1002 63.8854 85.1711 65.8102 82.7442 66.7866C82.242 66.9818 81.7957 67.1492 81.7678 67.1492C81.7399 67.1492 81.8515 66.8424 81.991 66.4518C83.051 63.5227 84.8922 60.5378 87.096 58.1666L87.626 57.6087L89.3835 59.3383L91.1409 61.0678L90.3877 61.7373ZM93.9027 63.9132L95.6043 65.6149L95.0743 66.1171C92.2847 68.7393 87.9887 71.1105 84.948 71.7521C84.1948 71.9195 82.521 72.0869 81.712 72.0869H81.182V70.8036C81.182 70.1062 81.2099 69.353 81.2378 69.1856L81.2936 68.8509L82.3815 68.4882C85.1432 67.5956 88.6582 65.3917 91.2525 62.9369C91.671 62.5463 92.0615 62.2116 92.1173 62.2116C92.1731 62.2116 92.9821 62.9648 93.9027 63.9132Z" fill="#1D1D1B"/>
</svg>
