<svg width="58" height="57" viewBox="0 0 58 57" fill="none" xmlns="http://www.w3.org/2000/svg">
<path fill-rule="evenodd" clip-rule="evenodd" d="M29.25 0C26.4886 0 24.25 2.23858 24.25 5V16.2211L16.0226 7.99376C14.07 6.04114 10.9042 6.04114 8.95155 7.99376C6.99893 9.94638 6.99893 13.1122 8.95155 15.0648L16.8867 23H5.25C2.48858 23 0.25 25.2386 0.25 28C0.25 30.7614 2.48858 33 5.25 33H16.4717L8.24412 41.2276C6.2915 43.1802 6.2915 46.346 8.24412 48.2986C10.1967 50.2512 13.3626 50.2512 15.3152 48.2986L24.25 39.3638V52C24.25 54.7614 26.4886 57 29.25 57C32.0114 57 34.25 54.7614 34.25 52V40.3633L42.1856 48.2988C44.1382 50.2515 47.304 50.2515 49.2566 48.2988C51.2093 46.3462 51.2093 43.1804 49.2566 41.2278L41.0289 33H52.25C55.0114 33 57.25 30.7614 57.25 28C57.25 25.2386 55.0114 23 52.25 23H40.6138L48.5492 15.0646C50.5018 13.112 50.5018 9.94616 48.5492 7.99354C46.5966 6.04092 43.4308 6.04092 41.4781 7.99354L34.25 15.2217V5C34.25 2.23858 32.0114 0 29.25 0Z" fill="white"/>
</svg>
