<svg width="58" height="57" viewBox="0 0 58 57" fill="none" xmlns="http://www.w3.org/2000/svg">
<path fill-rule="evenodd" clip-rule="evenodd" d="M37.7331 50.8568L48.6576 54.4989C52.5662 55.802 56.2849 52.0839 54.9827 48.1751L51.6692 38.2299C50.9151 35.9667 50.0006 33.7771 48.9384 31.6736C48.116 30.0449 48.1279 28.112 48.9704 26.4937C50.035 24.4488 50.959 22.3204 51.7307 20.1201L55.398 9.66306C56.762 5.77387 53.0992 1.9973 49.1701 3.24172L38.7799 6.53249C36.2491 7.33404 33.808 8.3216 31.4733 9.47899C29.8977 10.26 28.0413 10.26 26.4657 9.47898C24.1309 8.32155 21.6898 7.33397 19.1589 6.53239L8.76872 3.24162C4.83964 1.99721 1.17682 5.77377 2.54078 9.66297L6.2081 20.12C6.97977 22.3203 7.90388 24.4488 8.96844 26.4937C9.81094 28.112 9.82283 30.0449 9.00042 31.6736C7.9382 33.7771 7.02368 35.9667 6.26963 38.2299L2.95615 48.1752C1.65386 52.084 5.37265 55.8021 9.28116 54.499L20.2057 50.8569C22.3746 50.1338 24.4755 49.2734 26.4976 48.2861C28.0556 47.5254 29.8834 47.5254 31.4414 48.2861C33.4634 49.2734 35.5642 50.1338 37.7331 50.8568Z" fill="white"/>
</svg>
