<svg width="21" height="21" viewBox="0 0 21 21" fill="none" xmlns="http://www.w3.org/2000/svg">
<path fill-rule="evenodd" clip-rule="evenodd" d="M18.825 9.06689C19.1011 9.06689 19.325 9.29075 19.325 9.56689V10.3527C19.325 10.3882 19.3248 10.4189 19.3245 10.4472C19.3243 10.4737 19.3241 10.4982 19.3242 10.5225C19.3277 10.5369 19.3311 10.5536 19.3337 10.5718C19.3337 10.5722 19.3338 10.5728 19.3339 10.5735C19.3381 10.6019 19.3663 10.7924 19.2238 10.9652C19.046 11.1807 18.8023 11.1502 18.7448 11.1398C18.6716 11.1266 18.6177 11.0998 18.6014 11.0916C18.4181 11 18.3157 10.811 18.3255 10.6187C18.3253 10.6147 18.3252 10.6107 18.3251 10.6066C18.3238 10.5454 18.3242 10.4772 18.3247 10.4194C18.3248 10.3948 18.325 10.3721 18.325 10.3527V9.56689C18.325 9.29075 18.5488 9.06689 18.825 9.06689ZM19.0364 10.1913C19.0405 10.1932 19.0445 10.1952 19.0486 10.1972C19.0484 10.1971 19.0488 10.1973 19.0486 10.1972C19.0464 10.1961 19.0419 10.1938 19.0364 10.1913Z" fill="black"/>
<path fill-rule="evenodd" clip-rule="evenodd" d="M9.99693 4.08327C9.46596 4.08202 8.93664 4.14252 8.41963 4.26353C8.01632 4.35794 7.61284 4.10752 7.51844 3.70421C7.42403 3.3009 7.67445 2.89742 8.07776 2.80301C8.70769 2.65556 9.35262 2.58182 9.99957 2.58327C13.2154 2.58361 15.6913 4.41993 17.3167 6.15365C18.1363 7.02789 18.7623 7.89926 19.1834 8.55138C19.3945 8.87816 19.5553 9.15179 19.6644 9.34578C19.719 9.44283 19.7607 9.52009 19.7894 9.57428C19.8038 9.60138 19.8148 9.62272 19.8226 9.6379L19.8319 9.65599L19.8346 9.66147L19.8356 9.6633C19.8357 9.66359 19.8362 9.66453 19.1654 9.99994L18.5039 9.64638C18.4408 9.76448 18.3761 9.88168 18.3098 9.99794C18.2158 9.83406 18.0866 9.61794 17.9234 9.36517C17.5372 8.76729 16.9653 7.97199 16.2224 7.17956C14.7229 5.58011 12.6157 4.08327 9.9987 4.08327L9.99693 4.08327ZM18.3098 9.99794C17.8707 10.7679 17.3625 11.4967 16.7915 12.1754C16.5248 12.4923 16.5655 12.9655 16.8825 13.2321C17.1994 13.4988 17.6725 13.4581 17.9392 13.1412C18.6637 12.2802 19.2963 11.3459 19.8268 10.3535C19.9415 10.139 19.945 9.88212 19.8362 9.66453L19.1654 9.99994C18.4945 10.3353 18.4946 10.3356 18.4947 10.3357L18.494 10.3342L18.4886 10.3237C18.4834 10.3137 18.4751 10.2976 18.4636 10.2759C18.4406 10.2324 18.405 10.1664 18.3571 10.0812C18.3424 10.0552 18.3267 10.0274 18.3098 9.99794ZM4.59352 4.45386C4.89212 4.22584 5.31336 4.25395 5.57903 4.51961L8.75941 7.69999C8.76116 7.70172 8.7629 7.70347 8.76464 7.70522L12.2934 11.234C12.2952 11.2357 12.2969 11.2375 12.2987 11.2392L15.479 14.4196C15.632 14.5726 15.7115 14.7843 15.697 15.0002C15.6825 15.2161 15.5755 15.4152 15.4034 15.5464C13.8515 16.7293 11.9619 17.3846 10.011 17.4165L9.9987 17.4167C6.7824 17.4167 4.30622 15.5801 2.68071 13.8462C1.86112 12.972 1.23514 12.1006 0.813981 11.4485C0.602934 11.1217 0.442091 10.8481 0.332972 10.6541C0.278384 10.557 0.236656 10.4798 0.207982 10.4256C0.193643 10.3985 0.18256 10.3772 0.174759 10.362L0.165518 10.3439L0.162746 10.3384L0.161824 10.3366C0.161684 10.3363 0.161211 10.3353 0.832031 9.99994L0.161211 10.3353C0.0522272 10.1174 0.0559392 9.86005 0.171165 9.64532C1.2583 7.61933 2.76614 5.84927 4.59352 4.45386ZM1.68802 10.0026C1.782 10.1664 1.91102 10.3823 2.07404 10.6347C2.46017 11.2326 3.03211 12.0279 3.77502 12.8203C5.27333 14.4185 7.37838 15.9143 9.99258 15.9166C11.3313 15.8936 12.6353 15.5195 13.7767 14.8386L11.7183 12.7802C11.5726 12.8758 11.419 12.9597 11.2591 13.0309C10.8604 13.2086 10.43 13.3041 9.99367 13.3118C9.55729 13.3195 9.12383 13.2392 8.71915 13.0758C8.31447 12.9123 7.94685 12.669 7.63824 12.3604C7.32962 12.0518 7.08633 11.6842 6.92287 11.2795C6.75942 10.8748 6.67914 10.4413 6.68684 10.005C6.69454 9.56859 6.79006 9.13823 6.96769 8.73957C7.03896 8.57961 7.12287 8.42607 7.21842 8.28032L4.9928 6.0547C3.66694 7.16446 2.5478 8.50103 1.68802 10.0026ZM8.32283 9.38473C8.23681 9.58958 8.19053 9.80905 8.18661 10.0314C8.18246 10.2664 8.22569 10.4998 8.3137 10.7177C8.40172 10.9356 8.53272 11.1336 8.6989 11.2997C8.86508 11.4659 9.06302 11.5969 9.28093 11.6849C9.49883 11.7729 9.73223 11.8162 9.96721 11.812C10.1896 11.8081 10.4091 11.7618 10.6139 11.6758L8.32283 9.38473Z" fill="#154E49"/>
<path fill-rule="evenodd" clip-rule="evenodd" d="M0.46967 0.46967C0.762563 0.176777 1.23744 0.176777 1.53033 0.46967L19.8637 18.803C20.1566 19.0959 20.1566 19.5708 19.8637 19.8637C19.5708 20.1566 19.0959 20.1566 18.803 19.8637L0.46967 1.53033C0.176777 1.23744 0.176777 0.762563 0.46967 0.46967Z" fill="#154E49"/>
</svg>
