<svg width="20" height="16" viewBox="0 0 20 16" fill="none" xmlns="http://www.w3.org/2000/svg">
<path fill-rule="evenodd" clip-rule="evenodd" d="M1.68648 7.99992C1.78058 8.16404 1.91013 8.38089 2.07404 8.63469C2.46017 9.23257 3.03211 10.0279 3.77502 10.8203C5.2745 12.4197 7.38166 13.9166 9.9987 13.9166C12.6157 13.9166 14.7229 12.4197 16.2224 10.8203C16.9653 10.0279 17.5372 9.23257 17.9234 8.63469C18.0873 8.38089 18.2168 8.16404 18.3109 7.99992C18.2168 7.83579 18.0873 7.61895 17.9234 7.36515C17.5372 6.76727 16.9653 5.97197 16.2224 5.17954C14.7229 3.58009 12.6157 2.08325 9.9987 2.08325C7.38166 2.08325 5.2745 3.58009 3.77502 5.17954C3.03211 5.97197 2.46017 6.76727 2.07404 7.36515C1.91013 7.61895 1.78058 7.83579 1.68648 7.99992ZM19.1654 7.99992C19.8362 7.66451 19.8361 7.66425 19.8359 7.66397L19.8347 7.66145L19.8319 7.65596L19.8226 7.63787C19.8148 7.6227 19.8038 7.60136 19.7894 7.57426C19.7607 7.52007 19.719 7.44281 19.6644 7.34576C19.5553 7.15177 19.3945 6.87814 19.1834 6.55136C18.7623 5.89924 18.1363 5.02787 17.3167 4.15363C15.6912 2.41975 13.215 0.583252 9.9987 0.583252C6.7824 0.583252 4.30623 2.41975 2.68071 4.15363C1.86112 5.02787 1.23514 5.89924 0.813981 6.55136C0.602934 6.87814 0.442091 7.15177 0.332972 7.34576C0.278384 7.44281 0.236656 7.52007 0.207982 7.57426C0.193643 7.60136 0.18256 7.6227 0.174759 7.63787L0.165518 7.65596L0.162746 7.66145L0.161824 7.66328C0.161684 7.66356 0.161211 7.66451 0.832031 7.99992L0.161211 7.66451C0.055638 7.87565 0.055638 8.12418 0.161211 8.33533L0.832031 7.99992C0.161211 8.33533 0.161071 8.33505 0.161211 8.33533L0.162746 8.33839L0.165518 8.34387L0.174759 8.36196C0.18256 8.37714 0.193643 8.39848 0.207982 8.42558C0.236656 8.47976 0.278384 8.55703 0.332972 8.65407C0.442091 8.84806 0.602934 9.1217 0.813981 9.44848C1.23514 10.1006 1.86112 10.972 2.68071 11.8462C4.30623 13.5801 6.7824 15.4166 9.9987 15.4166C13.215 15.4166 15.6912 13.5801 17.3167 11.8462C18.1363 10.972 18.7623 10.1006 19.1834 9.44848C19.3945 9.1217 19.5553 8.84806 19.6644 8.65407C19.719 8.55703 19.7607 8.47976 19.7894 8.42558C19.8038 8.39848 19.8148 8.37714 19.8226 8.36196L19.8319 8.34387L19.8347 8.33839L19.8356 8.33655C19.8357 8.33627 19.8362 8.33533 19.1654 7.99992ZM19.1654 7.99992L19.8362 8.33533C19.9418 8.12418 19.9415 7.87512 19.8359 7.66397L19.1654 7.99992Z" fill="#154E49"/>
<path fill-rule="evenodd" clip-rule="evenodd" d="M10 6.25C9.0335 6.25 8.25 7.0335 8.25 8C8.25 8.9665 9.0335 9.75 10 9.75C10.9665 9.75 11.75 8.9665 11.75 8C11.75 7.0335 10.9665 6.25 10 6.25ZM6.75 8C6.75 6.20507 8.20507 4.75 10 4.75C11.7949 4.75 13.25 6.20507 13.25 8C13.25 9.79493 11.7949 11.25 10 11.25C8.20507 11.25 6.75 9.79493 6.75 8Z" fill="#154E49"/>
</svg>
