<svg width="136" height="94" viewBox="0 0 136 94" fill="none" xmlns="http://www.w3.org/2000/svg">
<rect x="0.853027" width="135" height="94" rx="20" fill="white"/>
<path d="M60.7926 64.4681H51.8047L57.4264 31.5664H66.4138L60.7926 64.4681Z" fill="#15195A"/>
<path d="M93.374 32.371C91.6011 31.7053 88.7893 30.9702 85.3125 30.9702C76.4366 30.9702 70.1863 35.4502 70.1479 41.8552C70.0742 46.5809 74.623 49.2056 78.0251 50.7813C81.5024 52.3914 82.6845 53.4423 82.6845 54.8775C82.6491 57.0816 79.8746 58.0977 77.2869 58.0977C73.6985 58.0977 71.7758 57.5738 68.8538 56.3475L67.6703 55.8218L66.4126 63.2076C68.5206 64.1166 72.4044 64.9233 76.4366 64.9586C85.8674 64.9586 92.0071 60.5479 92.0799 53.7223C92.1157 49.9769 89.7138 47.107 84.5354 44.7619C81.3918 43.2565 79.4667 42.2414 79.4667 40.7011C79.5035 39.3008 81.095 37.8665 84.6436 37.8665C87.5655 37.7963 89.7123 38.4611 91.3387 39.1263L92.1516 39.4757L93.374 32.371Z" fill="#15195A"/>
<path fill-rule="evenodd" clip-rule="evenodd" d="M109.463 31.5664H116.415L123.666 64.4676H115.344C115.344 64.4676 114.529 60.6873 114.271 59.5322H102.732C102.398 60.4068 100.845 64.4676 100.845 64.4676H91.4146L104.765 34.2963C105.69 32.1609 107.319 31.5664 109.463 31.5664ZM108.909 43.6066C108.909 43.6066 106.061 50.922 105.321 52.8122H112.791C112.422 51.1672 110.72 43.2916 110.72 43.2916L110.091 40.4566C109.827 41.1866 109.444 42.1903 109.186 42.8673C109.012 43.3262 108.894 43.6349 108.909 43.6066Z" fill="#15195A"/>
<path fill-rule="evenodd" clip-rule="evenodd" d="M12.8611 31.5664H27.3218C29.2819 31.6357 30.8723 32.2307 31.3899 34.3321L34.5323 49.4475C34.5327 49.449 34.5332 49.4505 34.5336 49.452L35.4955 54.0022L44.2976 31.5664H53.8017L39.6742 64.4332H30.1697L22.1587 35.8446C19.3947 34.3151 16.2401 33.0849 12.7131 32.2312L12.8611 31.5664Z" fill="#15195A"/>
</svg>
