<svg width="136" height="94" viewBox="0 0 136 94" fill="none" xmlns="http://www.w3.org/2000/svg">
<rect x="0.853027" width="135" height="94" rx="20" fill="white"/>
<path d="M80.713 68.0947H56.6199V24.7036H80.713V68.0947Z" fill="#FF5F00"/>
<path d="M58.1635 46.3957C58.1635 37.5936 62.276 29.753 68.6802 24.7002C63.997 21.0053 58.0864 18.8 51.6629 18.8C36.4559 18.8 24.1289 31.1548 24.1289 46.3957C24.1289 61.6366 36.4559 73.9915 51.6629 73.9915C58.0864 73.9915 63.997 71.7861 68.6802 68.0912C62.276 63.0384 58.1635 55.1978 58.1635 46.3957Z" fill="#EB001B"/>
<path d="M113.207 46.3957C113.207 61.6366 100.88 73.9915 85.6731 73.9915C79.2496 73.9915 73.3391 71.7861 68.6541 68.0912C75.06 63.0384 79.1726 55.1978 79.1726 46.3957C79.1726 37.5936 75.06 29.753 68.6541 24.7002C73.3391 21.0053 79.2496 18.8 85.6731 18.8C100.88 18.8 113.207 31.1548 113.207 46.3957Z" fill="#F79E1B"/>
</svg>
