<svg width="136" height="94" viewBox="0 0 136 94" fill="none" xmlns="http://www.w3.org/2000/svg">
<rect x="0.853027" width="135" height="94" rx="20" fill="white"/>
<path fill-rule="evenodd" clip-rule="evenodd" d="M62.3913 47.602L62.979 43.8221L61.6698 43.7912H55.418L59.7628 15.8978C59.7763 15.8133 59.8201 15.7349 59.884 15.6792C59.9482 15.6234 60.03 15.5928 60.1156 15.5928H70.6572C74.1571 15.5928 76.5722 16.33 77.8329 17.7853C78.4241 18.4681 78.8006 19.1817 78.9829 19.9668C79.1739 20.7907 79.1771 21.7749 78.9907 22.9756L78.9772 23.0629V23.8324L79.5684 24.1715C80.0661 24.4389 80.4618 24.7449 80.7652 25.0952C81.2708 25.6791 81.5979 26.4211 81.736 27.3005C81.879 28.2051 81.8317 29.2818 81.5979 30.5006C81.3281 31.9024 80.8921 33.1235 80.3031 34.1224C79.7617 35.0429 79.0716 35.8066 78.2522 36.3981C77.47 36.9604 76.5407 37.3872 75.4899 37.6603C74.4715 37.9287 73.3106 38.0642 72.0372 38.0642H71.2169C70.6304 38.0642 70.0606 38.278 69.6133 38.6615C69.1647 39.0529 68.8682 39.5877 68.7772 40.1726L68.7152 40.513L67.6767 47.1755L67.6298 47.42C67.6172 47.4974 67.5958 47.536 67.5643 47.5621C67.5363 47.586 67.496 47.602 67.4567 47.602H62.3913Z" fill="#28356A"/>
<path fill-rule="evenodd" clip-rule="evenodd" d="M80.1284 23.1519C80.0972 23.3555 80.061 23.5637 80.0207 23.7775C78.6306 31.0045 73.8743 33.5012 67.8001 33.5012H64.7072C63.9643 33.5012 63.3382 34.0471 63.2226 34.7892L61.1906 47.8397C61.1154 48.3271 61.4862 48.766 61.9716 48.766H67.4572C68.1067 48.766 68.6585 48.2882 68.7608 47.6396L68.8146 47.3575L69.8475 40.7211L69.9139 40.3571C70.015 39.7063 70.568 39.2282 71.2175 39.2282H72.0378C77.3525 39.2282 81.5131 37.0436 82.7292 30.7212C83.237 28.0801 82.9741 25.8748 81.6299 24.3238C81.2232 23.8563 80.7186 23.468 80.1284 23.1519Z" fill="#298FC2"/>
<path fill-rule="evenodd" clip-rule="evenodd" d="M78.6742 22.5648C78.4617 22.502 78.2426 22.4452 78.0179 22.3939C77.7919 22.3439 77.5605 22.2996 77.3222 22.2607C76.4883 22.1243 75.5744 22.0596 74.5957 22.0596H66.3333C66.1297 22.0596 65.9364 22.1061 65.7636 22.1903C65.3823 22.3758 65.0993 22.741 65.0307 23.1882L63.2729 34.4606L63.2225 34.7892C63.3381 34.0472 63.9642 33.5012 64.7071 33.5012H67.8C73.8742 33.5012 78.6305 31.0032 80.0206 23.7775C80.0621 23.5637 80.0971 23.3555 80.1283 23.1519C79.7766 22.9629 79.3957 22.8013 78.9856 22.6636C78.8842 22.6295 78.7797 22.5966 78.6742 22.5648Z" fill="#22284F"/>
<path fill-rule="evenodd" clip-rule="evenodd" d="M65.0307 22.7607C65.0993 22.3135 65.3823 21.9483 65.7635 21.764C65.9376 21.6796 66.1296 21.633 66.3333 21.633H74.5957C75.5744 21.633 76.4882 21.6981 77.3221 21.8345C77.5604 21.873 77.7918 21.9177 78.0178 21.9677C78.2426 22.0187 78.4617 22.0758 78.6742 22.1382C78.7796 22.1701 78.8841 22.2033 78.9865 22.2361C79.3966 22.3738 79.7778 22.5367 80.1295 22.7244C80.5431 20.0537 80.126 18.2353 78.7 16.5888C77.1276 14.7758 74.29 14 70.6589 14H60.117C59.3754 14 58.7427 14.546 58.6281 15.2893L54.2373 43.4695C54.1507 44.027 54.5754 44.5299 55.1307 44.5299H61.6388L65.0307 22.7607Z" fill="#28356A"/>
<path fill-rule="evenodd" clip-rule="evenodd" d="M31.3319 55.2739H23.6459C23.1199 55.2739 22.6726 55.6609 22.5904 56.1868L19.4818 76.1421C19.4201 76.536 19.7214 76.8908 20.1158 76.8908H23.785C24.3111 76.8908 24.7584 76.5042 24.8405 75.9773L25.6788 70.5948C25.7597 70.068 26.208 69.681 26.7331 69.681H29.1661C34.229 69.681 37.1509 67.2003 37.9143 62.2848C38.258 60.134 37.9288 58.4444 36.934 57.2609C35.8417 55.9614 33.9041 55.2739 31.3319 55.2739ZM32.2182 62.5624C31.7979 65.3548 29.6907 65.3548 27.6533 65.3548H26.4933L27.3071 60.1397C27.3556 59.8245 27.625 59.5925 27.9398 59.5925H28.4715C29.8594 59.5925 31.1687 59.5925 31.8451 60.3934C32.2487 60.8712 32.3721 61.5814 32.2182 62.5624Z" fill="#28356A"/>
<path fill-rule="evenodd" clip-rule="evenodd" d="M54.5028 62.3218H50.8222C50.5087 62.3218 50.2377 62.5538 50.1895 62.8691L50.0264 63.9113L49.7692 63.5336C48.9725 62.3626 47.1955 61.9712 45.4223 61.9712C41.3548 61.9712 37.881 65.0903 37.2045 69.4656C36.8529 71.648 37.3528 73.735 38.5758 75.1904C39.6974 76.5284 41.3022 77.0862 43.2114 77.0862C46.4888 77.0862 48.3058 74.9526 48.3058 74.9526L48.1418 75.9882C48.0801 76.384 48.3813 76.7391 48.7736 76.7391H52.0887C52.6159 76.7391 53.0611 76.3522 53.1442 75.8253L55.1333 63.0705C55.1963 62.6778 54.896 62.3218 54.5028 62.3218ZM49.3723 69.5749C49.0172 71.7037 47.3484 73.1329 45.2198 73.1329C44.1511 73.1329 43.297 72.7858 42.7484 72.1283C42.2044 71.4752 41.9979 70.5455 42.1707 69.5099C42.5025 67.3992 44.1992 65.9232 46.2955 65.9232C47.3406 65.9232 48.1902 66.2751 48.7499 66.938C49.3106 67.6083 49.5331 68.5438 49.3723 69.5749Z" fill="#28356A"/>
<path fill-rule="evenodd" clip-rule="evenodd" d="M73.822 62.6409H70.1231C69.7703 62.6409 69.4388 62.8184 69.2389 63.1155L64.1376 70.7233L61.9753 63.4122C61.8393 62.9548 61.4225 62.6409 60.9503 62.6409H57.316C56.8741 62.6409 56.5675 63.0779 56.7079 63.4989L60.7819 75.6038L56.9518 81.0784C56.6506 81.5096 56.954 82.1024 57.4744 82.1024H61.1685C61.5192 82.1024 61.8472 81.9294 62.0461 81.6384L74.3477 63.6592C74.6423 63.2293 74.3398 62.6409 73.822 62.6409Z" fill="#28356A"/>
<path fill-rule="evenodd" clip-rule="evenodd" d="M86.152 55.2739H78.4651C77.9403 55.2739 77.493 55.6609 77.4108 56.1868L74.3022 76.1421C74.2405 76.536 74.5418 76.8908 74.934 76.8908H78.8787C79.2448 76.8908 79.5584 76.6202 79.6156 76.2514L80.498 70.5948C80.5789 70.068 81.0275 69.681 81.5523 69.681H83.9844C89.0482 69.681 91.9691 67.2003 92.7334 62.2848C93.0785 60.134 92.747 58.4444 91.7522 57.2609C90.6608 55.9614 88.7245 55.2739 86.152 55.2739ZM87.0389 62.5624C86.6196 65.3548 84.5124 65.3548 82.4738 65.3548H81.3153L82.13 60.1397C82.1782 59.8245 82.4458 59.5925 82.7615 59.5925H83.2932C84.6799 59.5925 85.9903 59.5925 86.6668 60.3934C87.0704 60.8712 87.1929 61.5814 87.0389 62.5624Z" fill="#298FC2"/>
<path fill-rule="evenodd" clip-rule="evenodd" d="M109.318 62.3218H105.64C105.324 62.3218 105.056 62.5538 105.008 62.8691L104.845 63.9113L104.587 63.5336C103.79 62.3626 102.014 61.9712 100.241 61.9712C96.1737 61.9712 92.7012 65.0903 92.0247 69.4656C91.6741 71.648 92.1718 73.735 93.3944 75.1904C94.5186 76.5284 96.1209 77.0862 98.0304 77.0862C101.307 77.0862 103.125 74.9526 103.125 74.9526L102.961 75.9882C102.899 76.384 103.2 76.7391 103.595 76.7391H106.909C107.434 76.7391 107.881 76.3522 107.963 75.8253L109.953 63.0705C110.014 62.6778 109.713 62.3218 109.318 62.3218ZM104.188 69.5749C103.835 71.7037 102.164 73.1329 100.035 73.1329C98.9686 73.1329 98.1124 72.7858 97.5637 72.1283C97.02 71.4752 96.8154 70.5455 96.986 69.5099C97.32 67.3992 99.0146 65.9232 101.111 65.9232C102.156 65.9232 103.006 66.2751 103.565 66.938C104.128 67.6083 104.351 68.5438 104.188 69.5749Z" fill="#298FC2"/>
<path fill-rule="evenodd" clip-rule="evenodd" d="M113.351 55.8225L110.196 76.143C110.135 76.537 110.436 76.8917 110.828 76.8917H113.999C114.527 76.8917 114.974 76.5051 115.055 75.9783L118.165 56.0239C118.227 55.63 117.926 55.2739 117.534 55.2739H113.983C113.669 55.2749 113.399 55.5072 113.351 55.8225Z" fill="#298FC2"/>
</svg>
