<svg width="136" height="94" viewBox="0 0 136 94" fill="none" xmlns="http://www.w3.org/2000/svg">
<rect x="0.853027" width="135" height="94" rx="20" fill="white"/>
<path fill-rule="evenodd" clip-rule="evenodd" d="M116.465 14.1194L90.7375 14.1128C90.7344 14.1128 90.7309 14.1128 90.7309 14.1128C90.711 14.1128 90.6915 14.1163 90.6721 14.1163C87.1378 14.2243 82.7358 17.0517 81.9341 20.538L69.7674 74.233C68.9657 77.752 71.1468 80.6153 74.6555 80.668H101.683C105.138 80.4976 108.496 77.7027 109.284 74.256L121.451 20.5605C122.266 17.0058 120.032 14.1194 116.465 14.1194Z" fill="#01798A"/>
<path fill-rule="evenodd" clip-rule="evenodd" d="M69.7679 74.2331L81.9346 20.5381C82.7363 17.0517 87.1382 14.2243 90.6726 14.1163L80.4435 14.1097L62.0138 14.1062C58.4696 14.1785 54.0103 17.0257 53.2089 20.5381L41.0386 74.2331C40.2339 77.752 42.4182 80.6154 45.9247 80.6681H74.656C71.1473 80.6154 68.9662 77.752 69.7679 74.2331" fill="#024381"/>
<path fill-rule="evenodd" clip-rule="evenodd" d="M41.0385 74.2331L53.2088 20.5381C54.0102 17.0258 58.4694 14.1786 62.0136 14.1063L38.404 14.1001C34.84 14.1001 30.2706 16.9799 29.4561 20.5381L17.2858 74.2331C17.2117 74.5608 17.1706 74.882 17.1461 75.1962V76.1924C17.3844 78.7575 19.3485 80.6254 22.1718 80.6681H45.9246C42.4181 80.6154 40.2338 77.752 41.0385 74.2331Z" fill="#DD0228"/>
<path fill-rule="evenodd" clip-rule="evenodd" d="M62.5113 53.2317H62.9582C63.3687 53.2317 63.645 53.0943 63.7745 52.8223L64.9355 51.0892H68.0447L67.3963 52.2291H71.1242L70.6513 53.9756H66.2154C65.7045 54.7422 65.0756 55.1026 64.3194 55.0599H62.0088L62.5113 53.2317H62.5113ZM62.0011 55.7349H70.1685L69.6479 57.6321H66.3633L65.8621 59.4634H69.0583L68.5377 61.3604H65.3414L64.599 64.0664C64.4151 64.5187 64.6569 64.7221 65.3202 64.676H67.9251L67.4425 66.4389H62.4413C61.4933 66.4389 61.1681 65.898 61.4655 64.8137L62.4148 61.3604H60.3717L60.8907 59.4634H62.9341L63.4348 57.6321H61.4818L62.0011 55.7349H62.0011ZM75.0368 51.0763L74.9082 52.1869C74.9082 52.1869 76.4489 51.0332 77.8481 51.0332H83.0186L81.0413 58.1723C80.8773 58.9885 80.1741 59.3943 78.9322 59.3943H73.0719L71.6991 64.4073C71.62 64.676 71.7318 64.8137 72.0275 64.8137H73.1806L72.7567 66.3698H69.8252C68.7 66.3698 68.232 66.0323 68.4176 65.3544L72.2967 51.0763H75.0368H75.0368ZM79.4156 53.0943H74.8007L74.2486 55.0207C74.2486 55.0207 75.0172 54.4672 76.3016 54.4475C77.5823 54.4274 79.0443 54.4475 79.0443 54.4475L79.4156 53.0943ZM77.7436 57.5631C78.0848 57.6092 78.2757 57.4745 78.2987 57.1567L78.5811 56.1413H73.9591L73.5715 57.5631H77.7436ZM74.6258 59.8696H77.29L77.2405 61.0194H77.9498C78.3082 61.0194 78.4859 60.905 78.4859 60.6791L78.6958 59.9352H80.91L80.6144 61.0194C80.3642 61.9238 79.7013 62.3956 78.6238 62.4418H77.2047L77.198 64.4073C77.172 64.7221 77.4575 64.8826 78.0453 64.8826H79.3791L78.9486 66.4389H75.7493C74.8526 66.4814 74.4128 66.0552 74.4221 65.1512L74.6258 59.8696Z" fill="white"/>
<path fill-rule="evenodd" clip-rule="evenodd" d="M42.3428 41.565C41.9815 43.3309 41.1438 44.6873 39.8445 45.6505C38.557 46.5974 36.8963 47.0723 34.8632 47.0723C32.9498 47.0723 31.5471 46.5874 30.6519 45.6144C30.0311 44.923 29.7223 44.045 29.7223 42.9834C29.7223 42.5445 29.775 42.0727 29.8801 41.565L32.0464 31.1465H35.3181L33.1813 41.447C33.1156 41.7321 33.0893 41.9975 33.0928 42.2367C33.0893 42.7643 33.2207 43.1966 33.4867 43.5339C33.8743 44.0353 34.5034 44.2842 35.3788 44.2842C36.3855 44.2842 37.215 44.0387 37.8588 43.5438C38.5028 43.0523 38.9232 42.3546 39.112 41.447L41.2555 31.1465H44.5107L42.3428 41.565Z" fill="white"/>
<path fill-rule="evenodd" clip-rule="evenodd" d="M56.0829 37.4664H58.6452L56.6381 46.7645H54.0808L56.0829 37.4664ZM56.8893 34.0789H59.4744L58.9915 36.3358H56.4066L56.8893 34.0789Z" fill="white"/>
<path fill-rule="evenodd" clip-rule="evenodd" d="M60.9134 46.0568C60.2432 45.418 59.9049 44.5563 59.9016 43.4621C59.9016 43.2752 59.913 43.0624 59.9379 42.8296C59.9626 42.5937 59.9938 42.3643 60.038 42.1515C60.3418 40.6412 60.9891 39.442 61.9859 38.5573C62.9812 37.6695 64.182 37.2239 65.5879 37.2239C66.7392 37.2239 67.6522 37.545 68.3209 38.1871C68.9892 38.8327 69.3242 39.704 69.3242 40.8117C69.3242 41.0014 69.3096 41.221 69.2848 41.4569C69.2552 41.696 69.2194 41.9254 69.1779 42.1515C68.8809 43.6389 68.2356 44.825 67.2386 45.6933C66.2415 46.568 65.0442 47.0035 63.6481 47.0035C62.4919 47.0035 61.5819 46.6891 60.9134 46.0568ZM65.7966 44.2155C66.2483 43.7274 66.5718 42.9868 66.7689 42.0008C66.7985 41.8469 66.8246 41.6862 66.8409 41.5257C66.8573 41.3684 66.8639 41.221 66.8639 41.0867C66.8639 40.5132 66.7176 40.0678 66.4237 39.7532C66.1316 39.4353 65.7162 39.2783 65.1792 39.2783C64.4694 39.2783 63.8913 39.5269 63.4383 40.0251C62.9813 40.5233 62.6578 41.2767 62.4541 42.2793C62.4262 42.4332 62.4032 42.5873 62.382 42.738C62.3657 42.8919 62.3608 43.0361 62.3639 43.1671C62.3639 43.7372 62.5102 44.1763 62.8041 44.4874C63.0962 44.7988 63.5099 44.9527 64.054 44.9527C64.7668 44.9527 65.3449 44.707 65.7966 44.2155" fill="white"/>
<path fill-rule="evenodd" clip-rule="evenodd" d="M85.949 53.3106L86.5668 51.1418H89.6906L89.5558 51.9377C89.5558 51.9377 91.1521 51.1418 92.3017 51.1418C93.4516 51.1418 96.1644 51.1418 96.1644 51.1418L95.5505 53.3106H94.9428L92.029 63.5393H92.6367L92.0586 65.5707H91.4509L91.1981 66.4519H88.1729L88.4252 65.5707H82.457L83.0387 63.5393H83.6366L86.5531 53.3106H85.949H85.949ZM89.3192 53.3106L88.5241 56.0789C88.5241 56.0789 89.8844 55.5582 91.057 55.4108C91.3159 54.4441 91.6545 53.3106 91.6545 53.3106H89.3192L89.3192 53.3106ZM88.1559 57.3766L87.3581 60.2761C87.3581 60.2761 88.8657 59.5357 89.9003 59.4733C90.1991 58.3527 90.4983 57.3766 90.4983 57.3766H88.1559V57.3766ZM88.7406 63.5393L89.3386 61.436H87.0068L86.4057 63.5393H88.7406ZM96.2958 51.0076H99.2326L99.3573 52.0884C99.3378 52.3635 99.5018 52.495 99.8501 52.495H100.369L99.8439 54.3262H97.6854C96.8611 54.3688 96.4373 54.0545 96.3979 53.376L96.2958 51.0076ZM95.4355 54.9358H104.948L104.39 56.9016H101.361L100.842 58.7295H103.868L103.306 60.6921H99.936L99.1736 61.8424H100.823L101.204 64.1454C101.249 64.3748 101.453 64.4862 101.801 64.4862H102.314L101.775 66.3829H99.9621C99.0225 66.429 98.5367 66.1145 98.497 65.4364L98.0599 63.333L96.559 65.5707C96.2041 66.2029 95.6587 66.4979 94.9233 66.4519H92.154L92.6927 64.5547H93.5568C93.9116 64.5547 94.2069 64.3975 94.4729 64.0798L96.8219 60.6921H93.7932L94.3545 58.7295H97.6396L98.162 56.9016H94.8738L95.4355 54.9358Z" fill="white"/>
<path fill-rule="evenodd" clip-rule="evenodd" d="M45.3566 37.463H47.6674L47.4031 38.8062L47.7347 38.4229C48.4838 37.6236 49.3936 37.2271 50.4678 37.2271C51.4401 37.2271 52.1413 37.5089 52.5816 38.0756C53.0151 38.6425 53.1333 39.4256 52.9283 40.4314L51.6552 46.7677H49.2803L50.4299 41.0244C50.5484 40.4314 50.5156 39.989 50.3329 39.7039C50.1525 39.4189 49.8074 39.2782 49.3098 39.2782C48.6989 39.2782 48.1848 39.468 47.766 39.8449C47.3454 40.2249 47.068 40.7525 46.9316 41.424L45.8722 46.7677H43.4924L45.3566 37.463Z" fill="white"/>
<path fill-rule="evenodd" clip-rule="evenodd" d="M71.8563 37.463H74.1691L73.9065 38.8062L74.2345 38.4229C74.984 37.6236 75.8971 37.2271 76.968 37.2271C77.9403 37.2271 78.643 37.5089 79.0797 38.0756C79.5106 38.6425 79.6352 39.4256 79.4248 40.4314L78.1569 46.7677H75.7787L76.9287 41.0244C77.0467 40.4314 77.014 39.989 76.8332 39.7039C76.6458 39.4189 76.3073 39.2782 75.8118 39.2782C75.2006 39.2782 74.6884 39.468 74.2645 39.8449C73.8438 40.2249 73.5649 40.7525 73.4336 41.424L72.3694 46.7677H69.9926L71.8563 37.463" fill="white"/>
<path fill-rule="evenodd" clip-rule="evenodd" d="M83.288 31.6968H90.0022C91.2932 31.6968 92.2916 31.9886 92.9779 32.5616C93.6612 33.1418 94.0033 33.974 94.0033 35.0584V35.091C94.0033 35.2973 93.9896 35.5301 93.9701 35.7822C93.937 36.0313 93.8941 36.2834 93.8389 36.5457C93.5432 37.9808 92.8564 39.1341 91.7957 40.0088C90.731 40.8803 89.4701 41.3194 88.0183 41.3194H84.4176L83.3043 46.7679H80.1868L83.288 31.6968M84.9664 38.6984H87.9527C88.731 38.6984 89.3484 38.518 89.7988 38.161C90.2456 37.8006 90.5413 37.2503 90.7052 36.5034C90.7313 36.3654 90.7476 36.2411 90.7675 36.1265C90.7777 36.0185 90.7905 35.91 90.7905 35.8056C90.7905 35.2713 90.6005 34.8847 90.2191 34.6423C89.8381 34.3963 89.2406 34.2786 88.4123 34.2786H85.8764L84.9664 38.6984" fill="white"/>
<path fill-rule="evenodd" clip-rule="evenodd" d="M107.957 48.5666C106.972 50.6567 106.032 51.8753 105.481 52.4421C104.928 53.0026 103.835 54.3066 101.2 54.2082L101.427 52.6128C103.644 51.9313 104.843 48.8611 105.526 47.5016L104.712 37.4892L106.427 37.4663H107.865L108.02 43.747L110.716 37.4663H113.446L107.957 48.5666" fill="white"/>
<path fill-rule="evenodd" clip-rule="evenodd" d="M100.323 38.2231L99.2387 38.9669C98.1056 38.0824 97.0709 37.5352 95.0742 38.459C92.3539 39.717 90.0809 49.3659 97.5703 46.1878L97.9973 46.6923L100.944 46.7677L102.879 38.0002L100.323 38.2231M98.6481 43.0164C98.1748 44.4089 97.1176 45.3294 96.2898 45.0674C95.462 44.8118 95.1664 43.4684 95.6459 42.0728C96.1188 40.677 97.183 39.7597 98.0042 40.0218C98.832 40.2773 99.1307 41.6206 98.6481 43.0164Z" fill="white"/>
<path fill-rule="evenodd" clip-rule="evenodd" d="M90.7313 14.1302L80.4434 14.1096L90.6725 14.1537C90.6919 14.1537 90.7114 14.1302 90.7313 14.1302" fill="#E02F41"/>
<path fill-rule="evenodd" clip-rule="evenodd" d="M80.4434 14.1647L62.1551 14.1001C62.1091 14.1001 62.0614 14.1206 62.0137 14.1412L80.4434 14.1647" fill="#2E4F7D"/>
</svg>
